<svg xmlns="http://www.w3.org/2000/svg" width="816" height="820"><g fill="none"><path fill="#382431" d="M788.69 263.75c6.911 14.094 10.813 28.883 14.312 43.728 26.665 113.13 10.905 220.03-50.102 319.03-53.52 86.853-130.43 144.83-227.54 175.75-46.172 14.697-93.718 19.859-142.01 16.571-85.621-5.829-162.08-35.846-229.11-89.293-68.106-54.303-114.29-123.57-138.49-207.26C3.26 479.083-1.079 434.887.681 389.966c1.119-28.557 4.81-56.647 12.274-84.614 5.951-3.587 11.089-7.706 16.041-12.085 1.12-.991 2.37-1.832 3.069-3.642.836-2.394 1.498-4.488 1.521-6.66.171-16.078 9.49-26.305 22.35-34.667 2.44-.492 4.211-.26 4.972 2.51-.333 4.526-3.601 6.994-5.822 10.497-2.51 3.68-6.292 6.297-5.701 11.529.689 10.719-.79 20.966-.968 31.254-.054 3.06-1.302 5.438-3.752 7.22-3.499 2.541-6.636 5.548-10.141 8.063-3.01 2.159-4.127 4.864-4.1 8.505.083 11.299.124 22.6-.008 34.34.013.736.014 1.03.016 1.765.147 16.922 0 33.404.074 49.884.029 6.471.603 7.075 7.04 7.627 8.115.696 16.151 2.165 24.353 2.09 4.039-.037 5.706-1.447 5.639-5.547-.134-8.155-.152-16.316.004-24.471.144-7.519 2.531-8.808 9.31-5.347 4.003 2.045 7.792 4.485 12.265 6.603.621.415.851.61 1.331 1.18.493.924.664 1.494.825 2.522.155 1.582.13 2.73.113 4.294.132 10.145.653 10.611 10.518 9.556 2.441-.262 4.849-.843 7.745-.788 5.345-.393 8.715 2.41 11.163 6.045 3.278 4.867 7.574 6.183 13.182 6.042 8.108-.205 16.247-.545 24.768.412 2.784 1.524 2.73 4.039 3.054 6.243.522 3.55 2.358 5.417 5.839 6.392 8.813 2.467 8.778 2.59 8.796 11.945.007 3.462-.018 6.924.023 10.817-.111 2.593.16 4.771-.057 6.918-.627 6.204.42 11.151 7.61 12.934 3.03.752 4.129 3.656 4.308 6.7.206 3.495.077 6.992.082 10.893-.026 2.381-.106 4.357-.082 6.334.112 9.39 1.07 10.803 10.046 14.49 11.445 5.862 22.56 11.551 34.222 16.937.562.204.785.29 1.336.52.758.347 1.187.554 1.938.913 5.71 2.743 11.007 5.519 16.537 7.828 3.973 1.66 7.288 4.104 10.43 7.329 4.977 5.108 11.786 7.938 18.224 10.959 2.736 1.284 4.99-.977 7.2-3.106 1.79-1.963 1.465-4.043 1.1-5.93-.877-4.531-1.372-9.117-2.278-14.038-.203-4.778-2.363-7.862-6.044-10.132-2.976-1.835-5.825-3.878-8.655-5.938-2.358-1.717-4.99-2.691-7.922-2.654-5.842.076-11.576-1.407-17.438-1.114-4.034.201-6.52-1.928-6.575-5.871-.1-7.082-4.26-9.951-10.447-11.132-.813-.156-1.594-.482-2.4-.69-12.916-3.33-10.117-1.84-11.79-15.21-.843-6.736-.245-13.65-.172-20.48.04-3.644-1.289-6.292-4.121-8.591-7.762-6.3-15.327-12.846-23.28-18.906-4.738-3.612-7.145-7.968-6.72-14.123.402-5.805.127-11.66.065-17.492-.023-2.119.316-4.487-2.8-5.534-2.437-.659-4.683.259-6.91-1.237-.154-4.315 3.313-2.838 5.693-3.883 2.836-.396 4.058-1.44 4.051-4.226-.013-4.95-.168-9.863-.986-15.14-.036-1.677.026-2.96.265-4.598.288-1.693 1.097-3.004-.008-4.662-5.174-5.268-11.116-8.988-17.005-12.671-6.114-3.824-9.449-8.617-8.193-16.025.192-1.13-.091-2.336.047-3.482.582-4.823-1.334-8.043-5.435-10.765-5.513-3.66-11.32-6.97-16.36-11.896-.677-2.233.62-3.472 1.6-4.745 5.67-7.355 11.61-14.496 17.35-21.794.93-1.18 1.987-2.246 3.95-2.418 3.037 2.346 6.037 4.143 9.078 5.853 3.16 1.776 4.252 4.18 3.624 7.867-1.645 9.668-3.488 19.306-4.755 29.043-.412 3.163.371 5.386 2.516 7.597 7.408 7.638 15.491 14.623 22.175 22.96 1.813 2.261 3.642 2.303 5.901.306 8.23-7.276 16.24-14.763 23.78-23.256 6.621-5.593 13.047-10.867 18.783-17.41.819-.284 1.309-.26 2.1.092 3.472 6.887 1.535 14.186 2.65 21.726 6.15-3.216 11.145-7.297 16.622-10.586 4.06-2.438 7.817-5.67 13.321-5.49 1.434.964 1.92 2.127 2.286 3.757-.045 4.356-3.39 6.147-5.62 8.676-1.174 1.332-2.494 2.534-3.959 3.936 5.265-.528 9.767-3.815 15.381-2.505.763.38 1.15.678 1.736 1.307 3.675 9.297 5.853 18.697 8.722 27.884 4.258 13.639 8.274 27.35 12.402 41.029.93 3.085 1.568 3.862 4.378 1.333 6.425-5.783 12.715-11.688 18.97-18.168 4.892-4.545 8.991-9.404 14.125-13.156 2.916-2.132 3.018-4.215.36-6.918-14.944-15.197-23.618-33.55-27.107-54.882-1.246-5.12-.61-9.947-.773-15.16.007-2.957-.05-5.49.158-8.424 3.677-16.973 9.178-32.764 19.796-46.303 16.93-21.586 39.022-34.858 66.248-37.757 28.17-3 53.6 4.51 75.377 23.497 12.869 11.22 22.068 24.712 28.267 40.452.785 1.993 1.369 4.147 3.607 5.696-.821 7.31 2.056 13.958 2.29 20.876.235 6.954-.354 13.843-1.67 21.682 7.788-6.3 14.342-12.537 21.148-18.468 3.871-3.374 7.89-6.59 11.492-10.28 1.33-1.363 2.895-2.988 5.38-1.062 1.376 5.805.795 11.31.575 17.227-.727 2.832-1.271 5.248-.306 8.142.35 1.539.462 2.68.48 4.272.14 8.39.297 16.342-.15 24.683-1.482 4.192-3.442 1.988-4.852.603-3.306-3.248-6.06-7.01-9.173-10.444-.933-1.03-1.494-2.808-3.753-1.67-7.358 5.863-12.118 13.554-17.687 20.501-7.034 8.775-13.565 17.957-20.461 27.273-1.105 2.052.128 3.152 1.152 4.164 8.125 8.024 15.866 16.439 24.65 24.295 2.982 6.432 8.122 10.749 12.305 15.809 1.669 2.017 3.263 1.852 4.97.068 4.565-4.77 9.61-9.074 13.984-14.517 1.42-1.423 2.433-2.79 4.37-3.552 3.175-.045 3.45 2.206 3.615 4.109.938 10.813 8.784 17.164 15.726 23.875 4.51 4.361 7.05 3.89 11.614-.352 3.52-3.272 6.864-6.735 10.459-10.459 6.492-6.11 7.43-6.074 13.089.321 1.09 1.232 2.355 2.266 3.788 3.656 1.247 2.644-.368 4.307-1.297 6.178-.703 1.416-2.577 2.777-1.689 4.324.905 1.573 3.006.493 4.955.609 4.7-.155 9.028-.243 13.338-.059 3.94.17 5.304-1.542 5.187-5.324-.174-5.643-.01-11.297-.062-17.327-1.272-4.409-4.948-1.625-7.517-3.041-2.628-2.793.124-3.95 1.428-5.2 6.347-6.079 6.4-6.024.774-13.092-.408-.513-.859-.989-1.571-1.702-5.08-5.469-9.383-11.164-14.825-16.331-1.47-1.94-3.219-2.081-5.087-2.102-4.927-.054-9.855-.015-15.157-.026-1.1.007-1.826.017-2.855.368-4.522 1.526-5.679 6.627-10.258 7.967-4.682-2.603-7.164-6.962-10.705-10.785-2.593-2.41-3.967-5.464-6.942-7.53-1.779-2.857-5.088-4.272-5.212-8.093 5.79-4.748 9.844-10.639 14.623-16.334 5.573-6.02 10.88-11.814 16.004-18.233 7.57-8.479 14.606-16.957 22.008-25.574 1.166-1.23 2.128-2.184 3.222-3.491.817-.693 1.453-.987 2.534-1.022 13.546 10.859 26.409 22.015 37.974 35.081.954 5.235.165 10.166.825 15.438.293 1.198.347 2.015.364 3.236.431 10.357.182 20.319.28 30.277.048 4.81.45 4.996 4.76 2.665 2.345-1.267 4.466-2.872 6.66-4.367 1.516-1.03 3.084-2.03 5.387-1.07 1.784 3.229 1.025 6.374 1.021 9.858-.845 3.385-3.444 4.351-5.843 5.365-4.114 1.737-8.105 3.72-12.15 5.597-3.618 1.68-5.394 4.194-4.799 8.62.051 3.234.02 6.06.065 9.321-.15 8.96-.158 17.484.069 26.441.165.713.25.995.433 1.708.3 1.601.373 2.781.402 4.412.115 5.244.286 10.043-.226 15.283-1.212 7.97-1.079 15.498-.078 23.486.389 18.064 1.846 35.638 1.534 53.265-.194 10.972.142 21.95-.198 33.385-1.605 5.693-2.887 6.583-8.059 5.973-2.766-.326-5.482-.965-8.662-1.386-5.272-1.64-10.206-2.432-15.674-1.509-9.054-.434-12.579 6.371-17.346 11.8 1.59.387 2.88.021 4.567.06 11.878-.308 23.356-.158 35.257-.08 10.06.169 19.696.13 29.332.078 4.776-.025 5.251-.754 2.755-4.71-3.42-5.421-5.636-11.791-11.84-15.641-1.36-2.314-1.172-4.508-1.174-6.656-.02-20.952.043-41.904-.056-62.856-.021-4.36 1.078-8.081 3.73-11.57 4.73-6.22 9.33-12.564 13.335-19.272 3.323-5.564 7.56-9.328 14.055-10.933 5.91-1.46 6.107-2.39 5.145-9.042-.617-7.797-.208-15.163-.317-22.972.066-3.435 1.276-5.916 3.295-8.061.685-.727 1.232-1.634 2.037-2.192 10.475-7.263 13.077-17.394 11.904-29.582-.811-8.438.126-9.03 8.12-11.97 7.35-2.705 14.498-5.934 21.923-8.424 3.304-1.108 4.807-3.078 4.804-6.61-.017-26.156-.022-52.313-.005-78.469.003-3.052-.666-5.329-4.783-5.195-1.843-.038-3.26-.004-5.102-.057-2.952-.297-5.44-.765-8.202-1.864-1.229-2.518.497-3.32 2.348-4.436 2.711-.628 5.044-.491 7.803-.519 2.192-.02 3.947-.05 6.148-.047 3.143.117 5.841.11 8.995-.01 5.38-.07 10.305-.087 15.693-.002 7.245-.002 14.03-.24 21.247.23z"/><path fill="#159289" d="M729.52 264.73c-1.596.705-2.58 1.57-3.297 3.111-2.428 5.966-7.381 9.44-11.513 13.538-3.442 3.414-5.941 6.968-5.891 12.327-3.06 5.644-6.788 10.111-13.151 12.052-6.031-3.863-9.349-9.779-13.433-14.944-9.999-12.642-19.81-25.433-29.903-38.003-1.027-1.278-1.903-2.757-3.908-3.304-4.38 3.25-7.304 7.5-10.557 11.417-7.913 9.53-16.007 18.915-23.61 28.7-.715.918-1.512 1.754-2.955 2.283-.836.306-1.326.562-2.069.933-1.691.705-2.35-.417-3.143-1.217-13.233-13.337-26.105-27.026-39.071-40.618-6.985-7.322-13.614-14.969-21.633-21.516-3.498 2.572-5.626 5.996-8.054 9.139-9.862 12.767-19.223 25.922-29.976 38.38-2.876 1.864-3.235-.052-3.886-1.878-4.445-12.481-10.61-23.893-19.48-33.94-15.345-17.377-34.196-28.451-57.03-32.044-32.178-5.064-60.298 3.914-83.688 26.559-14.502 14.04-22.993 31.569-27.217 51.22-.171.8-.478 1.57-.953 2.655-2.888.789-3.951-1.466-5.46-2.838-6.255-5.69-11.511-12.425-18.645-17.488-5.057 3.651-9.542 7.548-13.766 11.724-8.825 8.725-17.545 17.556-26.354 26.297-2.335 2.317-4.617 4.79-8.473 5.305-9.556-7.933-17.765-16.805-26.052-25.613-10.44-11.097-20.989-22.099-32.773-32.189-4.231 2.684-6.74 6.679-9.757 10.178-5.425 6.292-10.28 13.072-16.545 19.013-7.783 7.345-13.464 16.083-20.203 23.94-.962 1.123-1.938 2.234-3.109 3.62-4.935.303-7.58-3.826-11.505-5.405-6.929-2.787-9.926-7.749-8.828-15.269.38-2.6-.31-5.365.127-7.947 1.492-8.825-2.351-15.396-8.394-21.148-3.844-3.659-6.876-8.077-10.948-11.543-1.277-1.086-2.364-2.298-4.49-2.678-9.244-.059-18.078-.5-27.332.336-2.233.504-4.04-.046-6.295.186-6.133.922-11.854.236-18.002.444a26.69 26.69 0 0 1-2.685-.202c-1.039-.167-1.596-.378-2.438-.996 7.304-19.562 16.906-37.818 28.04-55.218C120.98 98.7 204.665 38.54 312.365 11.98c39.905-9.84 80.487-13.36 121.44-10.674 70.114 4.6 134.94 25.865 194.05 63.977 64.255 41.428 112.68 97.014 146.79 165.26.594 1.188 1.068 2.436 1.702 4.017-1.13 3.904-4.447 2.228-7.122 3.168-1.027.192-1.714.437-2.34.314-10.18-2.002-15.9 4.47-21.55 11.203-4.683 5.58-9.557 10.986-15.812 15.486z"/><path fill="#6c382a" d="M32.59 247.22c.754-.202 1.248-.173 2.104-.07.774.272 1.206.359 1.963.17 6.34-.191 12.375-.236 18.872-.197.813.425.963.838.697 1.603-3.127 2.699-6.195 4.96-8.925 7.572-7.372 7.054-12.54 15.244-12.31 25.93.054 2.54-.848 4.854-1.716 7.508-5.31 3.107-10.629 4.912-16.805 4.528 3.754-16.236 9.717-31.556 16.121-47.045z"/><path fill="#a15e31" d="M767.4 237.36c2.724-2.07 5.84-.403 8.704-2.184 5.486 8.736 9.242 18.358 13.01 28.355-6.708 2.366-13.567 1.013-20.825 1.131-2.657-3.207-1.658-6.747-1.793-10.102-.15-3.749-.063-7.51.02-11.73.066-2.021-.067-3.6.883-5.47z"/><path fill="#572f27" d="M15.99 294.34c5.513-1.671 10.861-3.003 16.607-4.342.078 3.801-3.647 4.547-5.836 6.533-3.793 3.442-7.257 7.692-13.278 8.415.537-3.392 1.44-6.83 2.507-10.607z"/><path fill="#59e5e6" d="M432.17 794.41c-18.681 2.056-37 1.446-55.722-.372-2.166-1.992-2.004-4.385-2.005-6.7-.026-58.949.011-117.9-.072-176.84-.008-5.611 2.136-9.55 6.769-12.437 3.39-2.112 6.993-3.881 10.538-6.547 27.045-15.948 52.067-33.988 75.678-54.026 4-3.396 7.6-7.552 13.514-8.778 6.867-.242 13.338-.37 20.189.106 3.356 1.213 2.139 2.883.7 4.167-7.945 7.09-15.426 14.674-23.497 21.635-10.957 9.45-21.613 19.247-32.508 28.77-5.376 4.697-7.456 11.287-11.343 18.25 9.942-8.634 18.917-16.554 28.05-24.286 18.543-15.695 36.214-32.367 54.24-48.633 10.1-9.113 20.757-17.714 29.622-28.159 1.181-1.392 2.507-2.68 4.59-3.59 7.248-1.991 14.245-1.538 21.623-1.054 4.056 2.617 2.647 5.728.873 8.308-3.672 5.34-7.877 10.273-13.204 14.11-20.34 14.641-40.406 29.646-60.131 45.111-3.395 2.662-6.11 5.573-6.905 10.324-1.346 2.991-3.54 4.772-5.688 6.608-8.316 7.103-16.809 14.007-24.754 22.074-1.326 1.366-1.7 2.945-3.176 4.238-.64.315-.916.413-1.635.607-6.595.55-12.757.291-18.913.3-3.762.005-5.534 1.555-5.381 5.358.074 1.826-.012 3.661-.012 5.492-.001 55.604.008 111.21-.024 166.81-.001 2.958.51 6.021-1.413 9.154z"/><path fill="#e37d35" d="M476.74 349.71c-21.267 27.166-49.101 37.668-82.037 30.745-32.58-6.848-53.819-27.611-61.96-60.197-10.611-42.475 19-87.326 62.186-95.21 44.213-8.072 84.382 17.058 95.177 60.492 5.72 23.017.901 44.58-13.366 64.171z"/><path fill="#1a4448" d="M289.4 775.522c-14.926-4.159-28.671-10.858-42.709-16.832-2.158-.918-1.687-3.033-1.689-4.819-.016-14.66-.01-29.319-.01-43.979.001-33.817.044-67.634-.058-101.45-.01-3.333.908-5.2 3.915-7.091 31.487-19.792 63.502-38.689 95.75-57.203 9.792-5.622 19.501-11.388 29.248-17.088 3.561-2.082 5.703-4.832 5.22-9.316-.318-2.962-.03-5.989.042-9.463 2.606-1.977 4.838-.501 6.998.46a86.467 86.467 0 0 0 13.783 4.791c2.756.482 4.202 1.722 4.151 4.676-.093.635-.156.883-.384 1.477-.606.957-1.162 1.465-1.953 2.256-12.561 9.184-25.984 16.287-39.052 23.946-26.302 15.416-52.588 30.858-78.823 46.387-2.434 1.44-5.079 2.53-7.593 4.548-4.038 2.673-8.035 4.724-12.591 7.826 7.113.036 13.342-.041 19.568.046 2.268.031 4.73-.394 6.65 2.132.957 2.992.758 5.668.76 8.32.013 50.546.016 101.09-.009 151.64-.001 2.801.39 5.673-1.214 8.736z"/><path fill="#159289" d="M364.28 792.53c-14.617-.942-28.669-3.69-42.935-7.338-2.525-1.427-2.795-3.566-2.896-5.773-.121-2.658-.067-5.318-.067-7.977-.002-51.194-.01-102.39.013-153.58.002-3.798-.394-7.688 2.012-11.57 1.665-1.513 3.307-1.788 4.962-1.803 12.042-.113 24.085-.22 36.127.053.827.019 1.63.236 2.863.732.68.471.912.714 1.346 1.417-.742 59.673-.026 118.89-.223 178.1-.008 2.474.312 5.012-1.202 7.739z"/><path fill="#1a4347" d="M458.83 606.54c.295-.4.6-.58.77-.63 4.722-2.7 9.698-.748 14.925-1.402 6.336.169 12.246-.89 18.427 1.083 2.206 3.19 1.648 6.433 1.65 9.55.036 51.926.071 103.85-.058 155.78-.011 4.437 1.608 8.905-.391 13.712-4.486 3.615-9.747 2.906-14.458 4.119-6.191 1.594-12.64 2.189-19.412 3.169-2.508-2.664-1.878-5.774-1.88-8.708-.04-55.105-.042-110.21.001-165.31.003-3.65-.534-7.312.427-11.355z"/><path fill="#18746e" d="M320.22 605.51c-.468 5.254-.204 10.084-.204 14.895-.002 52.656-.008 105.31.01 157.97 0 1.974-.386 4.015.801 6.276-10.523-1.583-20.774-5.067-31.382-8.651-.39-53.858-.42-107.63-.453-161.4-.002-2.497-.03-4.994-.083-7.947.159-.688.353-.922.948-1.373 3.066-.977 5.793-.688 8.958-.703 7.189.062 13.937-.583 21.405.939z"/><path fill="#149188" d="M458.65 606.09c.736 2.188 1.22 4.324 1.221 6.46.042 59.471.034 118.94.006 178.87-8.962 2.357-18.004 3.292-27.582 3.434-.427-60.662-.415-121.23-.348-181.8.01-8.295-.844-6.962 7.257-7.029 6.322-.051 12.646.009 19.446.07z"/><path fill="#f59950" d="M223.3 592.25c-2.371-3.93-6.881-4.822-9.892-8.06 3.953-2.432 8.942.5 12.807-2.793-3.145-2.008-6.41-1.536-9.374-1.239-9.872.99-18.555-1.214-26.09-7.924-2.042-1.818-4.4-3.52-7.822-4.326-.957.286-1.33.365-2.04.14-3.057-2.973-5.755-5.956-10.701-4.164a26.646 26.646 0 0 1-2.832 1.087c-3.955.576-7.522.69-11.461-.091-2.228-1.273-2.083-3.257-2.386-5.006-2.218-12.784-6.09-25.183-8.765-37.86-.4-1.9-1.239-3.445-3.043-4.293-3.403-1.6-3.76-4.145-2.704-7.462 1.774-5.57 2.212-11.392 2.844-17.171.239-2.183.06-4.06-2.446-4.715-10.525-2.748-17.343-10.765-24.936-17.629-4.585-4.145-4.93-4.284-8.709.79-2.878 3.863-5.523 7.902-8.472 11.707-1.148 1.483-2.14 4.23-5.158 1.725-.934-12.013-.396-23.644-.474-35.27-.022-3.157 1.472-4.281 4.652-4.238 10.802.149 21.607.057 32.855.056 4.011-.458 6.514 1.379 8.601 3.923 6.34 7.725 13.248 14.947 19.817 22.47 2.707 3.1 3.842 6.374 3.82 10.429-.094 18.32-.053 36.644-.035 54.966.006 6.723.256 7.023 6.557 9.383 14.191 5.316 28.374 10.656 42.603 15.868 5.1 1.868 9.561 4.64 13.19 8.726 5.62 6.326 12.722 11.274 17.376 19.024.407 5.558.953 10.701-.411 16.217-5.362 3.233-10.911 1.627-16.668 1.614-.519-4.902-.659-9.545-.767-14.652.084-.638.136-.813.062-1.231z"/><path fill="#63322a" d="M90.16 395.77c-6.164-.586-10.383-4.74-15.498-7.074-4.75-2.168-5.603-1.931-5.629 3.497-.044 9.325-.156 18.654.065 27.973.086 3.63-.913 4.825-4.722 4.95-10.184.332-20.135-1.772-30.223-2.329-3.406-.187-5.348-1.651-5.271-5.932.312-17.312.138-34.633.164-52.422 1.914-1.728 3.538-.549 5.137.195a134.404 134.404 0 0 1 9.738 4.999c4.565 2.595 5.654 2.122 5.636-2.907-.034-9.28.592-18.574-.451-28.275.341-4.072 2.98-4.777 5.92-4.893 4.401-.174 8.807-.137 13.688-.024 7.243.205 14.069-1.038 21.153 1.17 1.782 2.178 1.726 4.378 1.733 6.531.051 16.133.042 32.266.006 48.4-.004 1.99.021 4.01-1.447 6.141z"/><path fill="#1b7570" d="M400.24 514.77c-7.312-1.172-13.494-4.957-20.71-6.904-.588-.318-.807-.578-1.255-.957-2.12-2.055-1.508-4.626-1.934-7.32.766-2.945 2.974-2.852 4.887-2.797 3.113.088 4.769-1.414 6.099-4.071 1.614-3.225 3.269-6.571 7.218-8.352 32.92-.201 65.505-.23 98.09-.267 4.821-.005 9.643-.042 14.93-.008.804 1.135.255 1.985-.303 2.795-5.332 7.731-10.716 15.425-16.736 22.647-1.167 1.4-2.491 2.639-4.609 3.418-6.986.683-13.633.55-20.243.286-6.315-.254-11.6 1.571-16.608 5.32-9.691 7.256-20.039 13.57-30.064 20.348-1.236.836-2.493 1.648-4.38 2.036-3.199-.049-4.693-1.865-5.905-4.49.56-2.308 2.226-3.146 3.767-4.114 6.881-4.323 13.54-8.98 20.844-13.77-8.14-.802-15.833.406-23.745-.87-2.152-2.374-.253-3.466 1.132-4.531 2.644-2.031 5.487-3.771 7.713-4.818-5.904.491-11.355 4.919-18.189 6.419z"/><path fill="#713b2a" d="M185.05 660.83c-8.857 4.983-15.654 11.841-23.159 17.776-1.03.815-1.765 2.026-3.529 2.326-2.72-2.295-2.816-5.305-2.832-8.326-.045-8.485.017-16.97-.029-25.455-.034-6.411-.49-6.944-6.587-8.62-2.072-.57-4.28-.737-6.463-2.286 1.055-7.104-2.108-11.238-8.218-13.6-2.528-.978-3.424-2.748-3.314-5.444.174-4.32-.147-8.662.081-12.976.571-10.814-1.134-21.55-.887-32.811 1.77-.833 2.807.353 3.9 1.324 6.054 5.375 12.492 10.309 18.214 16.068 3.258 3.28 6.79 5.28 11.948 4.192 4.81-1.014 9.89-.15 15.254-.38 3.886-.155 7.35-.075 10.718.935 1.07.32 2.584.48 2.67 1.788.109 1.693-1.627 1.857-2.807 2.245-2.188.718-4.42 1.06-6.66-.37 4.922 4.548 2.49 10.4 3.173 16.114.139 13.776.088 27.097.074 40.417-.003 2.314.189 4.69-1.547 7.082z"/><path fill="#c6753a" d="M572.36 756.75c-4.428 4.392-10.097 5.568-15.094 7.986-5.168 2.5-10.693 4.261-16.426 6.353-2.658-1.136-2.231-3.355-2.238-5.235-.072-21.13-.105-42.26-.006-63.392.03-6.352 2.064-11.817 6.294-16.845 6.256-7.433 13.055-14.182 21.098-20.288.97-.685 1.665-1.037 2.656-1.597.7-.451 1.083-.727 1.718-1.25.955-.878 1.667-1.503 2.722-2.291 2.92-1.629 5.306-3.392 7.76-5.058 1.707-1.157 3.513-2.773 5.916-.415 1.374 9.148-.167 18.04.905 26.739 1.15 9.334-1.482 16.093-9.7 20.774-3.505 1.996-4.523 5.41-4.496 9.381.086 12.636.053 25.274.016 37.911-.006 2.308.279 4.676-1.125 7.226z"/><path fill="#975830" d="M89.84 396.33c-.001-20.25.058-40.276.383-61.084 8.05-2.606 15.637-.426 23.71.425 6.044 2.383 10.306 6.194 13.265 11.996 1.731 16.074 2.786 31.75 1.945 47.91-.85 2.266-2.155 3.04-4.126 2.824 1.63.273 3.566-.667 5.43.814 3.052 3.044 6.763 3.43 10.29 4.128 3.884.769 7.777 1.486 11.656 2.295 4.223.881 6.33 3.157 5.999 7.583-.272 3.64.249 7.24.748 11.222-10.236.47-20.363.385-30.479.688-3.911.117-5.398-2.618-7.518-4.85-2.965-3.121-4.8-7.88-10.765-7.37-7.817-1.073-14.724-3.172-19.855-9.663-.271-1.36-.335-2.417-.367-3.87.35-.886.374-1.41.037-2.163-.177-.208-.293-.66-.353-.884z"/><path fill="#a15e31" d="M738.74 269.42c7.25-.632 7.251-.632 7.25 6.438-.004 26.296-.094 52.593.08 78.887.025 3.944-1.05 5.876-4.91 7.186-8.958 3.04-17.679 6.775-26.599 9.94-2.952 1.048-3.685 2.702-3.602 5.563.173 5.987-.06 11.985.124 17.97.089 2.891-.746 5.035-2.867 7.035-3.993 3.764-7.801 7.731-11.578 11.716-1.323 1.395-2.998 2.765-2.573 5.485-2.684-.07-4.95-1.485-7.603-2.887-1.27-2.91-.969-5.594-.974-8.234-.023-10.29.002-20.58-.017-30.869-.006-3.765.91-6.872 4.647-8.571 2.865-1.301 3.676-3.804 3.222-6.626-1.488-9.244-.516-18.56-.992-28.28.117-2.837 1.314-4.303 4.101-4.75 3.146 1.64 6.159 1.101 9.493 1.197 5.903-.005 11.4-.15 16.896-.027 3.118.07 4.758-.863 4.153-4.344-.733-4.218 1.683-7.163 4.812-9.201 5.549-3.614 7.45-8.495 6.832-14.904-.478-4.954.39-9.992-.724-15.374-.368-5.968-1.267-11.527.83-17.35z"/><path fill="#a66032" d="M69.21 334.62c-5.046.245-9.846.334-14.645.314-2.364-.01-4.366.29-4.582 3.648-6.148 8.944-11.966 17.735-20.523 24.413-.401-12.766-.415-25.427-.573-38.086-.029-2.261.789-3.652 2.544-4.98 3.976-3.008 7.601-6.512 11.727-9.283 2.998-2.014 4.04-4.263 4.052-7.809.034-9.977.475-19.953.817-30.397 5.248-3.197 10.754-1.884 16.122-1.55 3.966.248 7.9.927 12.33.262 13.468.081 15.047 1.716 14.974 15.397-.08 3.803.2 7.154-.27 10.945-1.12 8.086-.794 15.741-.334 23.391.12 2 .544 3.99-1.06 6.1-5.682 1.917-11.215 2.232-17.106 2.328-.702-.08-1.072-.105-1.434.213.084.406.159.567.293 1.004.034 1.89-.884 2.973-2.333 4.09z"/><path fill="#935530" d="M572.49 757.09c-.397-15.769-.308-31.576-.546-47.379-.055-3.632 1.332-6.002 3.983-8.011 2.242-1.7 4.462-3.431 6.745-5.074 2.88-2.072 3.833-4.336 3.597-8.299-.662-11.109-.276-22.28-.344-33.897-.36-.94-.474-1.456-.196-2.381 6.758-4.243 12.76-8.98 19.195-13.063 3.289-2.086 4.072-5.054 3.56-8.59-.451-3.122-.925-6.23-.8-9.403.24-6.126 4.168-9.049 10.938-7.555 1.425 9.471 3.288 18.561.612 28.146-3.508 3.204-6.703 6.109-10.078 8.787-3.769 2.99-5.359 6.454-5.292 11.534.312 23.811.004 47.63.253 71.441.052 4.915-1.104 7.932-5.763 10.216-8.626 4.228-16.36 10.182-25.863 13.528z"/><path fill="#985832" d="M507.05 782.82c-1.494.199-2.787.264-4.466.344-3.072.827-3.508-1.128-3.885-2.947-.474-2.291-.295-4.638-.295-6.963-.009-51.864-.007-103.73 0-155.59 0-4.543.222-9.137-4.991-12.061-2.07-1.985-1.947-4.19-1.936-6.296.028-5.735-.334-11.477.361-17.626.85-2.576 2.737-3.076 4.55-2.86 9.238 1.1 16.385-2.92 22.864-8.872 3.68-3.38 7.704-6.336 11.935-9.001 2.898-1.826 4.704-4.65 7.062-7.521 6.007-1.598 11.458-.162 17.274 1.231.773 3.328-1.807 4.205-3.6 5.428-5.917 4.037-11.663 8.196-16.836 13.245-3.64 3.553-5.297 7.5-5.5 12.342-.19 4.493-.245 8.997-.053 13.48.215 5.043-1.957 8.186-6.549 9.991-2.32.912-4.562 2.048-6.885 2.943-4.803 1.852-6.77 5.04-6.697 10.332.24 17.31.09 34.624.09 51.937-.001 20.31-.314 40.625.13 60.925.228 10.44-.619 20.902.722 31.34.634 4.928.507 9.98-2.002 15.041-.238.378-.3.373-.312.402-.282.209-.537.407-.98.758z"/><path fill="#713b2a" d="M156.99 284.38c8.062-10.897 16.44-21.238 25.831-31.042.48.149.629.33.923.833.5 1.682.442 3.118.989 4.811.221 1.088.227 1.827.103 2.944-1.054 10.507-.402 20.66-.444 30.802-.013 3.292 2.152 5.47 4.292 7.612 9.176 9.186 18.373 18.353 27.532 27.557 1.51 1.518 3.281 2.867 3.881 5.466.078 2.53-1.567 3.6-2.831 4.866-7.151 7.165-14.336 14.29-21.907 21.026-2.32 2.065-3.964 2.004-5.792-.24-7.57-9.298-16.515-17.273-24.858-25.825-3.782-3.877-.698-8.019-.379-11.805.704-8.357 2.368-16.66 4.105-24.888.634-3.002-.509-4.21-2.623-5.602-2.98-1.963-6.704-2.896-8.822-6.515z"/><path fill="#a15e31" d="M282.37 338.18c-.563-.39-.82-.575-1.158-1.033-2.469-3.27-4.851-6.308-6.925-9.973-.53-1.37-.92-2.426-1.346-3.82 3.67-7.47 9.132-13.192 15.104-18.927 2.241-.62 4.02-.046 5.652.741 7.024 3.39 14.711 5.25 21.754 9.529 3.47 21.228 12.202 39.539 27.426 54.458 3.38 3.311 2.802 5.057-.343 7.747-4.794 4.1-9.281 8.558-14.189 13.03-7.228 2.328-12.215.409-15.693-5.755-6.843-12.126-14.032-24.051-20.95-36.133-2.273-3.97-4.977-7.408-9.332-9.863z"/><path fill="#f79b53" d="M606.37 295.81c-6.674 9.435-14.401 17.556-22.056 26.143-5.888-2.406-9.668-7.214-14.112-11.14-8.822-7.793-17.957-15.257-26.25-24.177-.872-17.263-.549-34.135-.238-51.419 1.097-3.61 3.033-3.055 5.005-1.483 2.47 1.97 4.662 4.268 6.768 6.611 11.434 12.72 23.417 24.916 35.147 37.351 5.415 5.74 11.583 10.92 15.737 18.113z"/><path fill="#c47439" d="M184.72 661.57c.028-16.187.121-31.917.255-48.116 3.716-4.6 16.582-8.91 21.55-7.227 1.523 5.164.545 10.067.957 15.37.108 15.647-.482 30.828-.1 46.013.05 1.996-.192 3.96-.818 6.35-.917 15.753 1.457 30.96 1.022 46.23-.123 4.305.087 8.67-2.51 12.911-7.657-2.111-12.684-7.966-19.015-11.815-1.813-1.102-1.148-3.322-1.154-5.087-.066-18.058-.088-36.116-.188-54.63z"/><path fill="#905530" d="M693.82 443.77c2.26 7.554 1.997 8.643-5.252 10.375-6.277 1.5-10.365 4.813-13.67 10.274-4.37 7.223-9.49 14.002-14.464 20.843-1.862 2.56-2.54 5.17-2.529 8.3.087 23.11.038 46.222.04 69.789-2.286 4.944-6.306 7.028-11.272 8.193-.489-15.69-.55-31.283-.773-46.874-.193-13.582-.567-27.161-.885-41.21-1.052-7.799-.259-15.164-.293-22.964.175-5.527.19-10.6.23-16.146 2.16-2.163 4.708-1.93 7.143-1.836 9.06.35 18.038-1.377 27.095-.978.828.037 1.633-.18 2.77-.756 4.85-2.104 8.137.503 11.86 2.99z"/><path fill="#3d272c" d="M508.45 781.95c1.235-13.806-.337-27.698-.325-41.589.036-39.963.072-79.927-.119-119.89-.021-4.532 1.283-7.284 5.537-8.701 1.25-.417 2.376-1.195 3.583-1.757 13.455-6.263 10.486-2.443 10.96-16.953.023-.665.114-1.35-.002-1.995-2.29-12.728 5.76-19.808 14.528-26.397 4.245-3.19 8.728-6.06 13.23-9.698.135-.84.142-1.057.211-1.6.194-.757.383-1.165.852-1.812 1.353-1.182 2.562-1.949 4.31-2.506 1.415-.22 2.43-.12 3.732.529 2.232 6.165 1.62 8.331-2.891 11.953-5.064 4.066-10.465 7.69-15.38 11.96-2.336 2.031-3.439 4.266-3.386 7.358.111 6.495-.076 12.996.069 19.49.1 4.48-1.35 7.843-4.862 10.867-6.047 5.206-11.427 11.161-17.556 16.315-1.718 1.445-3.683 3.019-3.419 6.188-.149 5.55-.154 10.674-.1 16.273-.02 39.727-.015 78.981.016 118.71.185 2.677.055 4.871-.125 7.532-.204 1.084-.449 1.658-1.164 2.482-3.173.078-5.884.095-7.699 3.237z"/><path fill="#cc793b" d="M692.37 332.72c1.586.84 1.611 2.01 1.62 3.19.074 9.436-.41 18.896 1.007 28.28.513 3.397-.88 5.58-4.091 6.246-3.697.766-4.013 3.137-3.986 6.264.11 13.119.047 26.239.054 39.827.713 4.355-2.471 3.829-4.36 3.821-6.3-.025-12.525.87-18.793 1.142-6.045.261-6.194.417-6.329 6.67-.082 3.796.38 7.597-.342 11.79-3.9 2.17-7.636 1.899-11.81.54-.408-.253-.345-.423-.331-.512-1.172-9.07-.118-18.099-.727-27.53-.232-3.512-.287-6.59-.272-10.129 1.512-3.641 3.98-5.755 7.038-7.318 5.335-2.728 10.368-6.045 15.883-8.41 3.568-1.53 4.87-4.018 4.79-7.828-.167-7.821-.019-15.65-.064-23.475-.02-3.32.629-6.326 3.286-8.532 4.744-3.939 9.177-8.206 13.562-12.532.949-.936 2.043-1.73 3.865-1.504z"/><path fill="#935530" d="M582.31 587.23c-1.376-.202-2.433-.207-3.886-.195-6.424 2.753-12.7 1.19-19.314.934-2.599-3.795-2.134-6.796 1.27-10.734 3.946-4.561 8.76-8.188 13.304-12.087 2.503-2.148 3.61-4.3 3.23-7.744-.75-6.79-.213-13.646-.282-20.474-.041-4.072 2.14-6.62 5.639-8.021 4.21-1.687 5.492-4.669 5.429-9.024-.06-4.072-1.094-8.348 1.607-12.465 10.57-1.225 20.753-1.592 31.313.237.42.464.45.641.509 1.087.706 5.306.244 10.365.058 15.827-1.907 3.549-5.188 4.77-7.91 6.54-3.274 2.128-4.954 4.643-4.3 8.593.188 1.132-.14 2.354.07 3.477.912 4.846-1.646 6.782-5.93 6.63-3.894-.137-4.303 1.885-4.156 4.948.16 3.314-.355 6.697.11 9.952.886 6.18-1.467 10.702-6.436 13.924-3.3 2.14-5.007 5.73-8.35 8.19-.676.533-1.128.683-1.975.405z"/><path fill="#673529" d="M545.5 232.29c-.311 18.46-.383 36.559-.376 55.112.13.709.18.963-.08 1.456-5.867 3.046-9.498 8.16-14.22 11.985-7.068 5.726-13.606 12.104-20.42 18.148-1.082.96-2.429 1.623-4.216 2.79.227-6.46 1.796-12.148 1.9-18.006.13-7.197-.939-14.202-2.495-21.126-.495-2.202.208-3.402 1.363-5.178 6.911-10.892 15.123-20.419 22.622-30.477 4.734-6.35 9.2-12.919 14.966-18.839 1.66.917 1.612 2.304.957 4.136z"/><path fill="#f59b54" d="M649.38 342.8c-2.45-5.147-.715-10.582-1.433-16.332-.98-2.256-1.535-4.13-1.527-6.172.08-19.858-.277-39.718.263-60 2.066-4.797 4.305-2.98 6.365-.57 5.4 6.32 10.457 12.921 15.75 19.332 9.524 11.535 19.043 23.078 28.334 34.804 1.112 1.404 2.711 2.576 2.013 5.046-5.353 2.412-10.748 1.436-15.967 1.163-4.211-.221-7.332 1.037-10.471 3.527-6.785 5.38-13.057 11.34-19.644 16.94-1.009.858-2.034 1.73-3.683 2.263z"/><path fill="#673529" d="M129.34 568.65c-4.094.16-7.89.647-11.674-.446-3.207-.926-4.846.276-4.753 4.041.22 8.802.07 17.613.064 26.42 0 1.163.079 2.339-.061 3.486-.594 4.852-1.534 5.3-5.74 2.968-3.916-2.17-7.752-4.537-11.84-6.325-3.411-1.493-4.402-3.587-4.399-7.252.02-19.91 1.68-39.79 1.13-60.183 2.176-2.017 4.178-.788 6.112-.06 10.327 3.891 20.59 7.953 31.332 11.878.545.403.742.597 1.137 1.16.286.638.373.906.54 1.595.148.991.178 1.565.182 2.578.305 6.973-.417 13.418-2.03 20.14z"/><path fill="#c0733a" d="M240.26 724.83c-4.598-.73-8.565.967-12.59 1.741-3.115.599-4.58.267-4.565-3.443.141-34.44.145-68.878.325-103.77 5.076-4.269 10.08-7.901 17.14-6.039 1.33 3.572.837 6.884.884 10.626.209 9.69.204 18.916.019 28.624.241 12.482.157 24.482.034 36.973.257 10.375.077 20.261.071 30.147 0 1.65-.11 3.303-1.318 5.144z"/><path fill="#219c97" d="M394.37 590.84c-3.574 4.217-8.538 6.015-12.862 8.778-3.842 2.455-5.605 5.333-5.594 10.158.146 61.084.075 122.17.093 183.72-3.067.452-6.192.81-9.589-.359-2.43-3.139-.84-6.357-.822-9.407.182-28.812-.914-57.622-.473-86.423.423-27.645.217-55.285.377-82.927.01-1.841.182-3.652.5-5.896-.026-2.386.76-4.032 2.231-5.2 7.085-5.619 14.19-11.218 22.415-15.835 2.174.23 3.114 1.408 3.724 3.393z"/><path fill="#6c382a" d="M74.3 522.77c-4.825-.29-8.87-2.347-13.15-3.613-3.42-1.013-2.17-3.818-2.022-5.836.375-5.1 1.348-10.153 1.796-15.25.544-6.2-.203-6.703-6.183-5.511-5.026 1.001-10.21 1.406-15.095 2.853-3.748 1.11-4.96-.394-5.458-3.42-1.799-10.921-3.484-21.862-5.239-32.792-.183-1.14-.54-2.25-.85-3.777 1.768-1.957 3.53-1.077 4.983-.007 17.82 13.123 38.458 21.205 57.792 32.358.52.306.718.443 1.161.845.556.954.529 1.642.053 2.627-.583.857-.991 1.412-1.493 2.321-5.1 10.065-9.777 19.964-16.295 29.203z"/><path fill="#f39951" d="M220.42 333.82c-11.263-11.159-22.093-22.339-33.16-33.28-2.954-2.92-4.273-5.923-4.138-10.072.303-9.272.215-18.557.489-28.199 3.127-1.023 4.259 1.496 5.792 3.007 12.79 12.601 25.518 25.268 37.603 38.557 3.018 3.319 7.243 5.372 9.627 9.343.677 1.127 1.733 2.043 1.779 3.814-5.472 6.36-10.85 12.385-17.993 16.831z"/><path fill="#60332a" d="M288.72 304.31c-5.245 6.364-10.222 12.378-15.506 18.544-5.77.868-9.986 4.19-14.459 6.957-5.701 3.528-10.873 7.94-17.662 10.952-.325-8.147.401-15.752-1.227-23.65-.098-2.274.778-3.692 2.296-4.931 3.057-1.007 4.997-3.074 7.011-5.02 12.03-11.623 23.488-23.834 36.007-34.95a63.764 63.764 0 0 1 5.24-4.165c1.437.563 1.539 1.617 1.516 3.105-.228 1.425-.608 2.422-.55 3.892 0 .946-.005 1.491.02 2.46-.429 9.134-.062 17.922-2.687 26.805z"/><path fill="#9f5c31" d="M552.27 406.77c-1.408 1.16-2.528 2.105-3.96 3.101-6.322-4.312-12.423-8.543-18.632-12.619-2.002-1.315-3.873-2.963-3.733-5.499.423-7.646-4.45-12.458-8.964-17.5-.99-1.106-2.133-2.075-3.115-3.665-.475-1.813.325-2.902 1.263-3.807 4.345-4.19 8.06-9.05 13.515-12.549 3.264-.591 5.441 1.028 7.635 2.504 8.662 5.828 17.504 11.375 26.638 17.135 3.598 2.928 7.39 5.073 10.383 8.704.417 1.146.492 2.068-.059 2.707-6.467 7.505-12.383 15.55-20.972 21.488z"/><path fill="#f59950" d="M90.26 287.27c-.536-12.379-.536-12.379-12.849-15.281-8.912-1.64-16.494-5.37-23.488-10.606 2.019-3.115 3.951-5.86 6.035-8.9 1.51-1.818 3.33-1.96 5.183-1.95 7.639.044 15.279-.185 23.36.196 3.367.673 5.49 2.408 7.302 4.71 3.6 4.569 7.147 9.204 11.351 13.243 4.242 4.075 3.562 9.543 4.031 14.51.592 6.264.4 12.621-.077 19.302-1.15 2.692-3.974 5.231 1.043 7.04 3.301 3.998 6.261 7.712 11.53 8.622 2.102.363 2.522 2.422 2.397 4.394-.135 2.137-1.32 3.56-3.409 3.59-3.816.056-7.487 1.76-11.74.796-5.014-3.616-8.443-7.924-9.256-13.86-.247-1.8-.88-3.158-2.9-4.116-2.518-2.264-2.166-5.385-3.613-8.158-1.818-4.592-3.486-8.841-4.899-13.532z"/><path fill="#f2d8b9" d="M516.3 633.15c-.87-2.42.849-3.512 2.127-4.727 6.51-6.186 12.952-12.45 19.673-18.4 3.018-2.673 4.27-5.596 4.18-9.556-.166-7.315.118-14.64-.053-21.954-.05-2.088.494-3.435 2.08-4.654 5.004-3.848 9.732-8.103 14.987-11.561 4.338-2.855 6.745-6.107 5.695-11.806-2.161-3.194-1.143-6.408-1.362-9.832.18-5.677.194-10.965.067-17.215-13.085 9.637-25.653 18.678-38.208 28.335-.451.376-.636.52-1.11.865-10.433 7.046-20.571 13.902-30.405 21.766-.57.137-.807.152-1.38.05-.42-5.044 2.057-8.395 5.848-11.342 19.951-15.505 40.124-30.716 60.661-45.433 5.537-3.967 9.43-9.308 13.798-14.285 1.292-1.471 1.135-3.417 1.099-5.635-2.301-4.476-2.022-8.693-.313-13.364.363-1.723.69-3.098.441-4.36-2.257-11.426 3.254-19.333 11.56-26.054 1.006-.814 1.776-1.919 2.823-3.248.323-2.265 1.928-2.92 3.521-3.98.955-.026 1.945.355 2.154.1 3.482-4.275 8.146-2.794 12.955-2.691.65.46.786.978.306 1.299-9.055 6.052-15.59 14.797-23.557 22.006-3.315 2.999-4.629 6.53-4.626 11.006.006 8.604.602 17.228-.535 26.189-1.449 2.05-3.135 2.03-4.83 1.6.74.588 1.78.08 3.038.56 1.11 2.842-.848 4.323-2.288 5.736-3.346 3.284-4.42 7.13-4.325 11.714.187 9.129-.015 18.265.088 27.396.042 3.753-1.218 6.684-3.88 9.304-4.262 4.194-8.912 7.95-13.269 12.043-4.344 4.08-6.685 8.54-5.865 14.919.12 5.204.033 9.99.044 14.775.006 2.693-.32 5.282-2.479 7.703-7.582 7.987-14.326 16.264-23.293 22.768-1.898.795-3.484.452-5.366-.037z"/><path fill="#63322a" d="M552.36 407.07c6.487-7.912 14.279-14.897 20.69-23.519.185-1.013.695-1.164 1.518-1.354 3.365-.153 3.614-3.43 5.535-4.829 1.436-1.046 2.299-2.823 4.521-3.372 1.003.066 1.563.38 2.342.98.423.355.588.504.995.886 1.61 1.771 3.335 3.053 3.854 5.583-1.389 7.157-4.07 13.566-6.188 20.147-1.288 4.001-.724 7.172 1.906 10.52 2.686 3.419 5.976 6.596 6.684 11.469-3.644 5.038-8.146 8.75-12.284 12.803-3.047 2.984-6.52 3.127-9.719.34-8.357-7.279-16.962-14.447-18.189-26.622-.112-1.116.14-2.406-1.665-3.031zM648.7 257.3c-1.212 8.19-.578 16.015-.635 23.823-.106 14.653-.03 29.307-.104 44.425-12.28-10.685-24.485-21.834-36.848-33.286 11.71-15.15 23.669-29.922 36.693-44.173 2.286 2.724 1.754 5.764.894 9.211z"/><path fill="#24a5a0" d="M550.3 497.67c-9.723 12.621-22.124 22.006-33.416 32.466-9.492 8.793-18.997 17.606-28.725 26.153-18.06 15.867-36.173 31.673-54.693 47.157 2.719-9.125 6.774-17.239 14.225-23.551 10.764-9.118 21.27-18.544 31.779-27.958 7.792-6.98 15.413-14.15 23.292-21.501-.359-2.363 1.6-2.53 2.636-3.308 4.446-3.344 8.914-6.652 12.864-11.101 5.633-6.235 13.008-10.115 17.944-17.08 4.59-4.474 6.878-10.301 11.573-14.643 2.916-.12 5.512-.101 8.536-.046 1.8.897 1.257 2.124.705 2.995-2.146 3.39-3.33 7.397-6.72 10.417zM394.74 591.13c-1.26-.88-2.208-1.862-3.457-2.992-.37-2.612 1.772-3.375 3.252-4.498 22.885-17.359 45.675-34.84 68.06-52.839 6.077-4.885 11.858-10.126 17.684-15.308 1.497-1.332 2.857-2.803 5.3-3.222 7.642-6.078 12.03-14.354 17.638-21.643 1.51-1.963 2.97-3.962 4.637-6.215 3.798-.289 7.414-.307 11.47-.263 1.372 2.047.165 3.595-.78 5.054-3.75 5.79-7.103 11.846-11.57 17.587-1.035 1.428-2.07 2.386-3.257 3.678-7.078 7.326-14.865 13.231-23.253 18.945-8.651 4.529-15.217 11.253-22.277 17.222-16.044 13.563-33.404 25.218-50.922 36.685-4.026 2.635-7.735 5.784-12.524 7.81z"/><path fill="#a66032" d="M594.34 423.79c-2.517-4.748-6.074-8.693-9.206-12.889-1.645-2.205-2.38-3.941-1.414-6.708 2.612-7.48 4.879-15.08 7.395-23.009 3.457-1.546 6.24.524 9.197 1.329 8.024 2.184 16.027 4.507 23.459 9.284.607.38.946.492 1.159.72 8.143 8.723 8.136 8.718-.397 16.513-.848.775-1.577 1.68-2.466 2.858-3.828 5.794-6.416 12.06-11.93 16.366-2.53-.472-3.575-2.325-4.865-3.748-5.107-5.632-5.068-5.667-10.931-.716z"/><path fill="#cc793b" d="M578.19 505.21c-.341-10.104-.377-19.879-.431-29.653-.013-2.25.568-4.278 2.177-5.896 7.474-7.523 14.947-15.047 22.474-22.517 1.286-1.276 2.807-2.339 4.936-2.776 3.36-.256 6.502-.312 10.096-.305 2.775 8.19 1.884 16.49 1.696 24.738-.067 2.913-2.184 4.731-4.399 6.29-3.795 2.669-7.55 5.395-11.63 8.355-1.919 1.425-3.542 2.589-5.297 3.505-5.133 2.68-8.229 6.437-7.574 12.643.27 2.566-.439 4.971-3.588 6.282-3.026.647-5.64.904-8.46-.667z"/><path fill="#c0733a" d="M159.36 425.09c-2.949-3.552-2.591-7.485-2.27-11.229.362-4.225-.924-6.399-5.364-6.978-5.047-.66-10.033-1.839-15.01-2.952-2.382-.534-4.941-.94-6.577-3.639.964-1.5 2.428-1.74 3.943-1.745 11.592-.037 23.183-.106 34.775.034.843.01 1.625.282 2.8.908 2.26.278 4.096.296 6.177.525 2.428 3.93 2.376 8.116 2.537 12.191.221 5.608.238 11.237.004 16.842-.188 4.469.862 8.151 4.988 11 .92.99 1.49 1.772 2.449 2.65.638.451.985.729 1.56 1.247.551.533.86.846 1.4 1.399.536.578.801.945 1.203 1.639 2.281 5.062 6.506 8.166 9.503 12.232 1.322 1.793 3.364 3.274 2.271 6.185-2.673.888-4.969-.193-7.717-.043-5.632-.422-10.725-1.766-15.956-2.157-1.835-.138-3.521-.779-4.763-2.857-.25-5.815-.433-11.26-.3-16.698.07-2.86-.995-4.58-3.796-4.622-9.192-.137-11.704-5.742-11.857-13.933z"/><path fill="#935530" d="M577.71 590.47c3.012.95 1.957 2.196.853 3.414-3.341 3.687-6.483 7.59-10.108 10.974-3.196 2.984-4.44 6.376-4.434 10.6.005 3.462.203 6.93-.725 10.395-.644 2.403-.397 4.929-3.762 5.548-1.496.275-1.452 2.008-1.527 3.358-.35 6.287-.828 12.567-1.047 18.858-.124 3.54-1.195 5.888-4.935 7.008-4.436 1.328-8.596 3.62-13.06 4.798-4.222 1.114-5.555 3.354-5.132 7.468.305 2.96.118 5.98.03 8.97-.097 3.271-.991 6.21-4.352 8.12-3.551-.347-2.874-3.003-2.965-4.906a139.7 139.7 0 0 1 .08-14.808c1.03-9.099 5.286-17.209 4.144-26.24-.314-2.49 1.34-4.333 3.466-5.66 2.822-1.76 5.713-3.407 8.893-5.403 16.506-8.327 12.91-6.449 13.452-21.556.253-7.083-1.043-14.238 1.22-21.581 6.772-1.65 13.22-2.498 19.91.643z"/><path fill="#a15e31" d="M130.03 543.95c-11.063-2.718-21.104-7.467-31.525-11.175-1.862-.662-3.76-1.22-6.02-1.86-.702-.794-1.028-1.555-1.393-2.628-1.154-1.56-1.144-2.922-.21-4.713 10.884-12.008 21.535-23.652 32.797-34.715.593-.582 1.172-1.185 1.828-1.693 1.174-.909 2.354-2.084 3.992-1.431 1.668.665 1.669 2.344 1.798 3.817.19 2.154.094 4.32.094 6.48.005 13.631.02 27.262-.014 40.893-.006 2.3.342 4.681-1.347 7.025z"/><path fill="#713b2a" d="M34.76 445.29c18.605-.288 36.969-.284 55.804-.262 2.245 2.36.923 5.195 1.797 8.127.155 8.16.108 15.889.125 24.049.032 1.569-.494 2.622-.546 4.157-.115.66-.187.917-.476 1.505-2.855 1.999-5.063.645-7.075-.854-4.677-3.483-9.907-6.137-14.482-9.763-1.871-1.484-4.065-2.295-6.354-2.777-3.83-.805-7.283-2.418-10.306-4.835-6.105-4.881-11.868-10.162-17.574-15.502-1.027-.961-1.677-2.074-.914-3.844z"/><path fill="#b16836" d="M618.33 613.01c-2.378.705-4.38 1.5-6.43 2.14-2.282.715-2.816 2.229-2.98 4.511-.33 4.543 1.086 8.888 1.079 13.37-.003 1.859.16 3.855-1.592 4.997-7.175 4.676-13.584 10.534-21.901 14.035-2.779-2.384-1.891-5.479-2.01-8.323-.14-3.42-.05-6.85.011-10.691-.94-7.752 2.59-12.943 7.62-17.834 7.857-7.641 13.954-16.922 22.397-24.557 5.392-1.058 10.51-.307 15.596-.598 3.412-.195 4.212 1.332 3.98 4.443-.223 3.014-.917 5.827-2.198 8.932-3.734 4.485-8.014 7.698-13.572 9.575z"/><path fill="#854a2c" d="M492.94 605.17c5.08-.47 6.633 2.53 7.03 6.603.128 1.318.025 2.66.025 3.991.001 53.748-.01 107.5.058 161.24.002 1.98-1.11 4.396 1.725 6.042-1.902 1.52-4.43 2.038-7.523 1.974-2.17-59.358-.576-118.73-1.36-178.56-.121-.68-.174-.894.045-1.298z"/><path fill="#905530" d="M601.73 483.37c3.871-3.168 7.346-6.25 11.253-8.622 3.881-2.357 5.356-5.27 5.063-9.777-.437-6.698-.314-13.432-.292-20.5 2.79-.403 5.442-.508 8.095-.503 6.415.011 6.706.066 5.974 6.328-1.315 11.256-.572 22.536-.832 33.801-.086 3.715-.676 6.711-4.193 8.85-3.68 2.236-5.328 5.801-4.823 10.617-.226.634-.44.86-.804 1.268-.157.173-.176.169-.171.178-6.791 2.83-13.785 1.335-21.143.743 1.248-7.379-.279-14.849 1.873-22.384z"/><path fill="#f7dcbf" d="M240.33 590.21c-7.403-7.467-14.345-14.881-21.692-21.868-3.781-3.596-9.057-4.787-13.874-6.596-13.535-5.084-27.032-10.275-40.649-15.131-3.359-1.198-4.12-3.033-4.098-6.263.13-18.48-.05-36.963.195-55.44.069-5.22-.625-9.481-4.651-13.429-8.28-8.115-14.81-17.898-24.046-25.534-.552-.17-.773-.272-.685-.567 5.174-1.438 8.623.252 11.957 4.07 6.015 6.887 12.556 13.327 19.06 19.77 2.312 2.292 3.235 4.689 3.22 7.923-.088 19.814.082 39.63-.062 59.443-.024 3.36.875 4.895 4.162 6.04 14.725 5.128 29.298 10.69 43.999 15.89 4.845 1.714 8.782 4.352 12.245 8.153 4.816 5.287 10.048 10.194 15.084 15.28 1.741 1.76 3.789 3.374 3.378 6.654-.899 1.368-1.802 2.192-3.544 1.606z"/><path fill="#c6753a" d="M236.25 455.64a9.104 9.104 0 0 1-1.84.08c-6.79-4.924-12.661-10.461-18.262-16.308-2.29-2.39-2.12-5.333-2.51-8.288-.583-4.402.624-9.433-4.005-13.066-.656-1.076-.849-1.891-.973-3.175-.11-4.94-.52-9.45.493-14.352 3.166-4.208 7.349-2.627 11.567-2.813.712.092.99.149 1.659.356 2.343 1.256 2.838 3.234 3.243 5.178 1.671 8.024 5.238 15.372 8.055 22.99 1.185 3.206 3.659 5.012 6.43 6.623 3.016 1.753 5.456 4.027 5.133 7.86-.578 6.866 3.54 10.211 9.02 12.781 2.256 1.058 5.35 1.22 5.532 4.857-3.32 1.561-6.496.907-10.036 1.041-1.618-.07-2.788-.169-4.184-1.052-1.958-3.838-5.273-1.593-8.116-2.503-.599-.134-.768-.208-1.205-.21z"/><path fill="#c0733a" d="M289.24 559.78c-3.968 4.694-7.842 5.196-12.723 1.706-4.567-3.266-10.898-4.749-14.259-8.825-3.317-4.023-7.212-5.958-11.378-8.046-5.043-2.528-10.194-4.841-15.598-7.428-.488-.439-.708-.666-1.173-.966-.214-.103-.248-.146-.255-.12-.578-.803-1.17-1.72-1.037-2.71.743-5.546-2.415-7.895-7.094-9.636-6.485-2.414-12.611-5.79-19.788-7.447-.943-1.24-1.018-2.298-.558-3.77 5.804-1.385 10.693 1.057 15.604 3.102 5.261 2.19 10.661 3.393 16.75 3.371 3.843.698 7.274 1.43 11.074 2.335 2.601 2.52 5.502 3.84 8.324 5.242 4.492 2.231 7.207 5.507 7.916 10.693.704 5.148 1.797 5.72 7.038 5.089 4.95-.597 9.887-1.572 15.104.46 1.134 5.697 3.066 10.964 2.051 16.95z"/><path fill="#713b2a" d="M396.31 447.28c-1.143-2.53-2.763-4.16-4.373-5.843-6.161-6.439-12.168-13.027-18.411-19.384-2.967-3.02-2.585-6.577-2.47-10.637-.108-4.716 1.792-8.638 2.401-13.162 5.456-2.071 9.717 1.197 14.722 2.607 7.195 5.537 12.802 12.193 19.222 18.562.637.64.943 1.06 1.356 1.891 1.225 10.103.678 19.317-8.36 26.153-1.518.6-2.646.61-4.086-.187zM282.12 338.29c3.676-.212 6.153 1.795 7.945 4.832 7.494 12.701 15.58 25.103 22.234 38.231 3.483 6.872 8.364 8.495 15.333 8.702-6.569 8.295-15.034 15.005-23.48 23.113-7.483-25.298-14.759-49.89-22.03-74.878z"/><path fill="#af6735" d="M544.79 289.56c.027-.662.11-.866.302-1.383 6.468 3.413 11.272 8.988 16.747 13.758 7.373 6.424 14.588 13.027 22.02 19.861-4.24 6.846-9.74 12.428-15.413 18.295-1.82.65-2.809-.35-3.715-1.265-6.384-6.445-13.1-12.564-19.293-19.682-.288-1.319-.38-2.341-.495-3.748-.828-2.404-.287-4.503-.235-6.985.148-6.411.144-12.402.082-18.85z"/><path fill="#db8645" d="M527.71 668.76c.69 7.061-.188 13.914 1.138 21.002-3.018 3.279-1.842 7.266-1.987 10.955-.072 1.814-.024 3.632-.102 5.915-.534 20.833-.142 41.203-.273 61.571-.015 2.318.057 4.638-.254 7.399-.2.443-.225.396-.205.414-.737.652-1.712.352-2.765.88-.21.264-.17.172-.131.203-.758.638-1.696.879-2.997 1.2-1.626.682-2.767.613-3.825-.946-.232-2.392-.281-4.457-.267-6.96.838-2.191.454-4.042.456-5.842.028-28.697.02-57.394.016-86.54 1.971-5.437 5.081-9.058 11.196-9.251z"/><path fill="#f7dcbf" d="M110.18 304.29c-.61-9.623.323-18.925-.97-28.161-.254-1.81-.173-3.578-1.633-5.027-5.295-5.26-9.98-11.054-14.457-17.012-.678-.903-1.586-1.116-2.704-1.733-.143-1.17 1.469-1.309.864-2.81-.587-1.007-.89-1.786-.57-2.95 4.963 1.936 7.645 6.531 11.512 9.755 10.07 8.397 14.68 18.812 12.366 31.83-1.608 9.043 2.043 14.595 10.258 18.03 3.004 1.256 5.577 3.545 8.63 5.472 6.576 4.443 12.751 8.96 19.21 13.026 3.079 1.938 4.842 4.323 4.138 7.729-2.592 12.539 3.266 20.159 13.842 25.67 4.067 2.12 7.519 5.42 11.329 8.516.73 1.435.426 2.636.346 4.236-.01 1.794.073 3.155.103 4.922-2.217 1.781-1.254 3.823-1.206 5.687.12 4.68.944 9.398-1.032 14.286-.886.481-1.429.42-2.247-.179-2.25-5.61-1.333-11.128-1.073-16.532.213-4.45-1.187-7.582-4.695-10.253-4.887-3.72-9.71-7.535-14.852-10.882-4.003-2.605-6.01-5.923-5.726-10.766.204-3.472.084-6.969.006-10.453-.053-2.378-.352-4.67-2.926-6.307-12.523-8.242-24.851-16.1-37.436-24.23-.606-.616-.865-1.032-1.076-1.862z"/><path fill="#f3d0a9" d="M249.28 522.25c-3.732-.558-7.205-.646-10.807-2.121-1.925-1.547-1.835-3.46-1.837-5.254-.007-4.267-2.163-6.698-6.1-8.025-3.775-1.272-7.52-2.647-11.324-3.817-3.895-1.198-5.646-3.616-5.586-7.705.092-6.306.036-12.615.011-18.923-.025-6.6-1.686-12.14-7.738-16.138-5.36-3.542-10.531-7.564-14.563-13.275-.28-.615-.446-.813-.872-1.015-.541-.2-.85-.404-1.261-.918-.23-.55-.409-.785-.901-1.018-.842-.481-1.524-.828-2.106-1.72-6.543-3.464-7.635-8.901-7.304-15.502.429-8.569.241-17.184-.76-26.173 3.381-1.184 5.043-.397 4.908 3.707-.262 7.97.14 15.96.037 23.939-.039 2.926.862 4.88 3.19 6.752 9.45 7.601 18.686 15.468 28.082 23.138 2.003 1.635 2.614 3.447 2.623 5.988.036 9.808.42 19.614.466 29.421.014 3.049 1.234 4.466 4.105 5.142 4.355 1.026 8.61 2.48 12.967 3.489 4.34 1.004 6.12 3.496 6.66 7.947 1.123 9.256-.14 7.37 8.359 7.896 5.637.348 11.273.741 16.913 1.037 2.266.12 4.11 1.066 5.9 2.35 3.507 2.517 6.943 5.174 10.655 7.352 3.71 2.177 5.654 4.95 4.927 9.725-.755.807-1.504.668-2.606.266-2.235-1.25-3.929-2.645-5.508-4.086-8.587-7.831-18.804-11.495-30.53-12.46z"/><path fill="#f6dab8" d="M268.82 435.04c3.48 3.76 3.555 8.38 3.044 12.761-.86 7.375 1.818 12.775 6.94 17.958 5.402 5.465 11.022 10.864 15.224 17.79.855 2.366.802 3.863-2.335 3.76-3.222-.417-4.827-2.446-6.562-4.84a69.032 69.032 0 0 0-1.057-1.244c-.567-.644-.71-.802-1.29-1.433-.581-.635-.725-.797-1.08-1.214a25.83 25.83 0 0 1-.813-1.062c-4.498-5.765-9.682-10.504-13.873-16.54-.905-2.903-1.358-5.51-1.29-8.2.133-5.329.502-10.713-3.825-14.918-.455-.443-.785-1.171-.763-1.814.254-7.43-4.958-11.581-9.54-16.16-6.226-6.22-12.053-12.812-17.887-19.874-4.403-4.725-8.938-8.816-13.17-13.213-1.606-1.67-3.503-3.12-4.734-5.075-2.678-4.255-6.446-5.94-11.36-5.524-1.472.124-2.988.025-4.62-1.015-.799-1.262-.801-2.263-.02-3.548 4.438-.384 8.6-.378 12.743-.637 2.068-.129 3.443.703 4.784 2.081 15.539 15.97 31.071 31.947 46.025 48.91.939.4 1.496.865 1.506 1.536.067 4.243 1.951 7.79 3.953 11.515z"/><path fill="#9f5c31" d="M657.35 440.33c-2.351-6.14-1.035-12.126-1.25-18.024-.102-2.81 2.291-2.35 4.003-2.303 7.932.217 15.77-1.632 23.716-1.038 1.123.084 2.373.178 3.074-1.575 2.463-.079 5.543-1.576 6.855 2.388.334 7.93.383 15.625.417 23.792-3.934.977-6.374-3.604-10.86-2.536-8.835 1.36-17.25 2.034-25.954-.704z"/><path fill="#f39951" d="M614.41 590.39c-3.247 6.108-8.606 10.795-12.886 16.377-3.3 4.304-7.038 8.346-11.02 12.031-3.43 3.175-5.337 6.573-4.596 11.689-3.494 3.721-6.089 7.69-8.622 11.706-.948 1.503-1.632 3.29-4.2 3.387-2.522-1.129-2.028-3.134-2.053-4.884-.066-4.475-.027-8.952-.015-13.83-.126-3.037 1.046-5.32 2.447-7.316 6.368-9.064 12.52-18.28 19.068-27.22.493-.673 1.172-1.161 2.19-1.805 2.335-.274 4.366-.335 6.832-.36 1.527.55 2.68.303 4.144.222 2.98-.074 5.628-.063 8.712.002z"/><path fill="#713b2a" d="M513.57 369.81c6.932 6.176 14.2 11.707 13.477 22.117-.16 2.301 1.902 3.224 3.507 4.439 5.754 4.355 12.61 7.226 17.422 13.223-3.798 7.529-10.677 11.917-15.957 17.768-.585.648-1.726.914-2.256.256-4.713-5.85-11.183-10.358-13.743-18.23-.245-4.837 1.888-8.72 3.326-12.7 2.244-6.209 1.4-11.564-2.667-16.704-2.022-2.555-4.486-4.916-5.213-8.698.303-1.222.868-1.671 2.104-1.47z"/><path fill="#219289" d="M414.52 406.79c10.761 12.687 21.098 25.14 31.621 37.887-.258 1.06-.97 1.507-2.126 2.068a9.48 9.48 0 0 1-1.692.474c-9.918-.059-19.424 1.234-29.253-.78-1.721-2.156-1.605-4.342-1.619-6.475-.07-10.557.076-21.115-.037-32.132.773-1.413 1.66-1.558 3.106-1.041z"/><path fill="#452524" d="M511.7 370.78c2.933 4.173 5.482 8.19 8.277 12.028 2.717 3.73 2.534 7.66 1.259 11.709-1.48 4.701-3.107 9.356-4.943 14.263-1.974.268-2.947-.928-4-1.98-7.398-7.396-14.806-14.783-22.179-22.204-1.114-1.122-2.764-2.134-1.389-4.389 6.151-1.87 11.222-5.31 16.737-7.788 1.907-.857 3.64-2.32 6.238-1.64z"/><path fill="#572f27" d="M512.14 370.77c-6.366 2.215-11.771 5.885-17.689 8.461-1.585.69-2.975 2.34-5.245 1.03 10.422-15.052 21.516-29.496 32.873-43.736 1.413-1.772 2.889-3.695 5.563-4.558 1.896 1.176 2.22 2.974 2.64 5.203.18 5.938.706 11.433-.486 17.312-6.112 4.414-10.528 10.002-15.73 15.223-.69.476-1.227.65-1.926 1.065z"/><path fill="#7c422b" d="M648.98 343.25c8.365-8.46 17.009-16.175 26.3-23.142 1.348-1.011 2.751-1.74 4.543-1.67 6.129.242 12.26.4 19.103.775 1.402 1.84 1.57 3.57 1.306 5.683-11.777 1.288-17.086 11.518-25.29 17.482-1.971 1.433-3.324 3.722-6.352 4.263-6.599.775-12.798 1.634-19.299-.336-.32-1.086-.328-1.873-.31-3.055z"/><path fill="#89e9f5" d="M591.96 446.45c.227 2.196-1.352 2.858-3.065 3.765-2.056.194-3.89.228-6.174.241-.773.103-1.11.152-1.707.067a9090.697 9090.697 0 0 0-47.498-.141c-4.52.2-8.578.064-13.103.081-7.11-.03-13.75-.046-20.853-.042-13.857.123-27.254.037-41.14.061-2.828-.02-5.166-.04-7.941-.038-3.462.058-6.486.04-9.964.011-3.234-.044-6.015-.065-9.263-.091-.522-.27-.578-.536-.497-1.184 4.045-2.502 8.419-2.14 12.96-2.924.344-.203.28-.233.285-.198.86-.868 1.97-.43 3.382-.507 1.518.462 2.617.09 4.176-.034 41.13.033 81.808-.06 122.94.205 5.994.287 11.528.41 17.457.728z"/><path fill="#db8645" d="M284.85 480.82c1.855 1.821 3.531 3.477 5.51 5.243 1.65.884 2.45 1.936 1.824 3.937-2.475 1.765-4.758.972-7.005.433-3.885-.931-7.74-2.007-12.148-2.335-9.06-3.03-17.32-6.97-25.728-10.553-1.52-.648-3.047-1.39-4.033-3.34-.206-1.332-.373-2.333-.256-3.3.637-5.232.233-9.878-6.012-11.647 2.519-.25 5.037-.5 7.895-.977 1.355-.23 2.37-.232 3.768-.21 5.548 8.087 14.646 9.892 22.433 13.717 3.57 1.753 7.497 2.778 10.727 5.892.29.22.26.297.246.258.129.267.332.525.806.87.21.133.134.176.153.137.17.26.374.515.835.87.2.145.136.176.151.143.179.254.392.497.833.862z"/><path fill="#905530" d="M320.24 524.98c-12.01-1.183-23.623-2.664-35.254-3.996-3.269-.374-3.977-3.253-5.613-5.173-3.21-3.768-6.577-7.542-6.387-13.413 4.197-3.005 8.698-1.868 13.082-1.425 2.404.243 3.194 2.327 3.266 4.407.16 4.604 2.891 5.462 6.723 4.984 3.294-.411 6.569-1.083 10.365-.8 1.268-.03 2.089-.072 2.911-.072 10.856-.01 11.823.897 12.684 12.409-.28 1.373-.73 2.163-1.778 3.079z"/><path fill="#60332a" d="M142.08 636.43c.701-.456 1.369-.48 2.028-.418 11.674 1.117 12.893 2.433 12.893 13.89 0 7.465.077 14.932-.041 22.396-.043 2.692.395 5.257 1.042 8.246-5.571-.937-9.748-4.92-14.686-7.487-1.881-.978-1.289-2.879-1.293-4.45-.026-10.569.006-21.137.057-32.177zM648.72 346.26c6.769-.44 13.282-.627 20.049-.531.442.847.462 1.419.203 2.42-1.1 6.019-.34 11.665-.59 17.282-.102 2.296.357 4.663-1.138 7.14-5.713 2.174-9.672 6.428-14.754 8.921-3.452 1.694-3.519.576-3.503-2.21.045-7.808.05-15.616-.028-23.424-.031-3.116-.322-6.23-.238-9.598z"/><path fill="#f39951" d="M288.79 304.75c.252-9.11.844-18.134 1.633-27.597 3.059-1.624 4.534.598 6.015 2.194 5.945 6.413 11.86 12.853 18.153 19.422.436 5.306.648 10.338 1.022 15.746-6.675-.936-12.685-4.468-19.141-6.805-2.47-.894-4.895-1.91-7.682-2.96z"/><path fill="#219289" d="M646.21 571.77c4.253-2.028 7.752-4.742 11.471-7.745 1.983-.166 3.554.266 4.625 1.724 4.117 5.602 7.533 11.641 10.815 17.745 1.566 2.912-1.016 2.43-2.477 2.428a2340.184 2340.184 0 0 1-31.21-.26c-4.618-3.364-7.986-7.281-10.206-12.433 3.908-.696 7.535.628 11.213 1.295 2.768.503 4.432-.08 5.769-2.754z"/><path fill="#905530" d="M175.07 460.43c6.332 2.79 13.494 1.728 20.488 3.585 3.317 4.846 1.897 10.358 2.662 15.52.865 5.839.519 11.873.158 18.256-3.61 2.28-7.055 2.161-10.908.398-.433-4.282-.546-8.247-.539-12.21.006-2.99-1.055-5.145-4.133-5.909-9.624-2.388-7.54-4.955-7.712-11.242-.073-2.641-.042-5.286-.016-8.397z"/><path fill="#f2d8b9" d="M668.19 347.26c.655-.368.764-.594.806-1.057 6.04-5.617 12.142-10.95 18.036-16.505 3.44-3.241 7.188-5.227 12.43-4.737 1.423-.796 2.54-.71 3.657-.351 1.449.466 2.927 1.203 2.948 2.854.022 1.735-1.528 2.339-3.016 2.65-1.759.367-3.546.437-5.774.227-1.99.098-3.178.912-4.382 2.276-7.08 4.958-12.4 11.436-18.721 16.79-1.603 1.356-1.208 3.355-1.21 5.16-.005 8.492-.128 16.988.105 25.475.094 3.462-1.006 5.451-4.198 6.952-5.714 2.686-11.179 5.898-16.81 8.766-2.876 1.464-5.321 3.387-7.694 5.959-1.383-4.083.265-6.737 4.22-8.46 6.065-2.64 12.017-5.54 18.294-8.522 1.068-10.41.407-20.646.637-30.87.048-2.14-.224-4.293.672-6.606z"/><path fill="#0a5f57" d="M366.8 605.78c.206 25.795.606 51.47-.047 77.119-.335 13.145-1.102 26.323-.418 39.418.983 18.822.195 37.625.647 56.429.108 4.494-.084 8.954-.94 13.8-.458.44-.922.455-1.731.42-.317-58.626-.28-117.2-.281-175.78 0-3.171.127-6.298.944-9.8.282-.684.474-.99.82-1.505.399-.191.581-.212 1.006-.102z"/><path fill="#f4e3c0" d="M242.21 312.02c-.088 1.75-.975 2.974-2.25 4.346-.484.445-.817.592-1.393.855-3.013-4.522-7.31-7.723-11.033-11.48-12.737-12.857-25.345-25.842-38.024-38.755-1.625-1.655-3.384-3.179-5.391-4.923-.38-.877-.45-1.596-.527-2.677-.107-1.663-.08-2.967-.099-4.594-.088-.517-.14-.712-.267-1.197 1.108-.802 1.782.001 2.479.708 18 18.262 36 36.524 53.984 54.801.812.825 1.477 1.795 2.521 2.917z"/><path fill="#975830" d="M179.32 593.55c-6.567.873-13.018-.17-19.405 1.296-3.383.777-5.371-2.342-7.49-4.136-7.412-6.273-14.504-12.921-21.994-19.595-.276-.168-.357-.649-.364-.892 2.936-2.27 4.367-6.087 8.507-7.168.853-.027 1.332.043 2.13.327 10.843 9.28 21.95 17.688 32.637 26.608 1.492 1.245 3.29 1.484 5.462 1.741.595.555.715 1.009.517 1.819z"/><path fill="#db8645" d="M332.21 485.33c-.716-1.534-1.193-2.747-1.92-4.168-1.457-1.341-1.51-2.876-1.758-4.708-1.291-3.597-4.274-1.544-6.635-2.448-1.244-.22-2.154-.318-3.436-.057-1.668.257-2.949.22-4.508-.57-3.197-5.448-6.254-10.59-7.757-16.411-.792-3.067-.895-6.215.225-9.677 3.504-2.486 6.532-.439 10.026.357 2.617 1.013 4.216 2.67 5.514 4.61 4.672 6.987 8.924 14.253 14.1 20.906 1.23 1.582 1.691 3.558 2.133 5.899-.067 3.547.698 6.659.462 10.199-4.443 2.532-4.765-1.392-6.446-3.932z"/><path fill="#7c422b" d="M545.16 319.32c5.584 2.534 8.998 7.811 13.516 11.887 3.073 2.772 5.937 5.776 9.197 8.875-4.124 5.857-7.86 12.154-14.655 15.997-4.758-1.388-6.56-5.219-8.542-9.129.197-9.277.296-18.216.484-27.63z"/><path fill="#60332a" d="M34.72 444.72c.6 4.561 4.596 5.947 7.076 8.306 3.106 2.955 6.228 5.98 9.565 8.682 3.706 3 7.704 5.439 12.628 6.586 7.416 1.728 12.637 7.675 19.09 11.337 2.407 1.366 4.293 3.777 7.897 3.344 1.233 1.773 2.267 3.518 1.022 5.822-6.417-1.61-11.385-5.569-16.987-8.29-13.363-6.494-26.642-13.135-38.994-21.47-2.28-1.54-4.07-4.014-7.58-4.01-.472-1.14-.467-2.304-.706-3.416-1.656-7.693-1.16-8.238 6.988-6.891z"/><path fill="#db8645" d="M767.3 241.35c1.076 7.567.587 14.956.572 22.767-5.006.523-9.964.617-15.386.685-3.236-.639-6.039-.212-9.172-.11-2.1.179-3.854.193-6.035.103-1.321-2.051.018-3.28 1.14-4.413 4.884-4.932 9.808-9.832 14.136-15.267 3.887-4.879 8.984-4.912 14.744-3.764z"/><path fill="#b16836" d="M307.23 510.66c-5 .649-9.784.954-14.563 1.336-3.423.274-5.142-1.213-4.634-4.64.679-4.586-1.355-5.89-5.616-5.427-2.794.303-5.648.055-8.94.06-.776-1.413-1.086-2.832-1.444-4.617-2.153-3.406-1.924-6.574-.202-10.134 7.001-.964 12.935 2.656 19.869 2.785 1.051 5.877 5.245 8.266 10.447 10.19 2.84 3.09 5 6.142 5.082 10.447z"/><path fill="#60332a" d="M271.94 486.67c.218 3.305.165 6.367.083 9.884-8.774-.217-17.513-.964-26.265-1.52-2.692-.171-2.766-1.773-2.757-3.726.028-5.495.022-10.99.069-16.963 9.263 4.38 18.968 8.148 28.87 12.326z"/><path fill="#f4e3c0" d="M571.19 662.62c-.37.636-.58.89-1.092 1.188-.536.676-1.15.65-1.881.999-8.33 7.26-16.506 14.213-23.236 22.792-3.203 4.083-4.795 8.166-4.787 13.141.04 23.142.07 46.284.197 69.89-1.905 2.179-3.485 3.277-3.48-.876.032-25.321-.004-50.642-.092-75.963-.009-2.54 1.3-4.36 2.455-6.378 7.062-12.356 19.405-18.896 30.329-27.464 1.453.332 2.02 1.108 1.587 2.671z"/><path fill="#7c422b" d="M29.09 363.16c6.032-5.751 10.518-12.52 15.616-18.762 1.472-1.803 2.92-3.574 4.952-5.262 2.283 1.995 1.232 4.614 1.281 6.993.15 7.304.05 14.614.056 21.922.001 1.998.256 4.41-1.737 5.341-1.712.8-3.437-.88-4.909-1.83-4.624-2.977-9.612-5.206-14.928-7.55-.358-.227-.362-.406-.331-.852z"/><path fill="#c6753a" d="M307.48 510.98c-1.792-3.262-3.054-6.554-5.44-9.625 1.036-1.419 2.374-1.345 3.65-.938 7.393 2.357 15.008 3.936 22.368 6.405 1.737.583 3.344 1.429 4.618 3.396 1.53 10.271 1.307 20.224 1.561 30.55-.662.548-1.124.689-1.83.76-4.223-5.793-7.363-12.027-11.214-18.226-1.299-12.31-1.299-12.31-13.712-12.323z"/><path fill="#e7934e" d="M629.03 572.72a389.86 389.86 0 0 1 9.85 12.565c-12.229.32-24.557.346-37.35.375 1.925-5.955 4.62-11.628 12.024-13.42 5.288-1.13 10.29-1.667 15.476.48z"/><path fill="#60332a" d="M373.93 397.6c.539 4.769-.694 8.876-2.6 13.145-5.588-3.805-9.783-9.022-14.633-13.559-1.58-1.478-2.991-3.154-4.673-4.498-6.69-5.343-7.205-6.865-4.878-14.702.724-2.44 2.065-3.034 3.87-1.295 3.266 3.15 7.187 5.334 10.867 7.88 1.253.868 2.072 1.942 1.906 3.748-.605 6.619-.538 6.625 6.904 6.754 1.382.698 2.573 1.052 3.237 2.527z"/><path fill="#219289" d="M93.25 439.97c-1.153.517-2.105.936-3.058.941-9.393.05-18.786.03-28.18.03l-.454-1.244c4.908-2.424 9.78-4.926 14.733-7.252 5.692-2.674 11.5-5.1 17.174-7.81 3.94-1.882 7.907-2.112 12.352-.74-2.51 6.594-7.013 11.537-12.567 16.075z"/><path fill="#af6735" d="M306.71 446.81c-1.166 9.639 3.933 17.149 7.35 25.507-3.17 3.133-6.718 2.16-10.658 1.047-3.571-.757-6.508-1.654-8.471-4.894-2.729-7.103-1.337-14.06-.903-21.396 2.423-3.185 5.617-3.126 9.124-3.19 1.861.36 2.233 1.956 3.558 2.926z"/><path fill="#6c382a" d="M209.72 414.77c.297.973.35 1.687.455 2.754 2.74 7.693 3.129 15.178 1.141 23.143-7.899-1.012-9.333-2.636-9.33-9.85.002-2.147-.122-4.303.03-6.439.304-4.28-.16-7.823-4.435-10.499-3.91-2.449-4.436-7.518-6.44-11.429-.534-1.039-.566-2.676 1.536-3.36 3.242-2.176 6.325-1.713 9.77-.582.41.366.55.499.57.648.215 1.523-.957 1.216-1.815 1.538-.446.167.378.462.576.724.598.792 1.139 1.615 1.534 2.513 1.655 3.76 3.434 7.445 6.408 10.839z"/><path fill="#572f27" d="M92.23 523.59c-1.365 1.273-1.046 2.53-1.155 4.034-6.054.707-11.187-2.286-16.86-4.382 4.929-10.136 10.08-19.987 15.507-30.042.584-.285.894-.368 1.623-.217 1.184.918 1.769 1.794 1.803 2.775.32 9.151 1.38 18.325-.917 27.832z"/><path fill="#f6dab8" d="M707.55 295.28c-.766-7.32 2.907-11.906 7.647-16.142 3.686-3.294 7.032-6.968 10.762-10.721 2.54.003 4.847.254 7.535.58.772 1.37-.291 1.783-1.044 2.331-6.082 4.426-10.192 10.736-15.333 16.06-1.985 2.057-1.828 4.851-2.006 7.899-1.104 9.05-.296 17.724-.609 26.374-.093 2.585.417 5.47-2.949 7.233-4.792.273-4.865-2.839-5.03-6.345.304-9.255-1.11-18.092 1.027-27.27z"/><path fill="#f4e3c0" d="M545.57 232.79c-.43-1.418-.547-2.703-.7-4.381 1.33-2.093 1.869-.427 2.555.292 20.336 21.299 40.66 42.61 61.267 64.087.138 1.564-.853 2.357-2.123 3.266-5.202-5.238-10.059-10.66-15.067-15.939-13.926-14.679-27.906-29.307-41.892-43.929-1.137-1.188-2.479-2.18-4.039-3.396z"/><path fill="#f39951" d="M714.12 294.16c-.475-3.353.364-6.06 2.526-8.373a968.836 968.836 0 0 0 12.302-13.417c1.246-1.385 2.619-2.452 4.69-3.079 1.665-.265 3.097-.307 4.957-.294.441 5.726.453 11.399.452 17.54-1.085 1.912-2.74 2.225-4.32 2.647-5.556 1.485-11.237 2.551-16.485 5.06-1.203.575-2.506.831-4.122-.084z"/><path fill="#f59b54" d="M93.52 440.24c3.256-5.584 7.81-10.502 12.449-15.777 2.774-.501 5.383-.711 8.508-.663.517.26.457.162.498.123 4.308 4.778 8.968 9.304 11.207 15.71-10.894.378-21.546.482-32.662.607z"/><path fill="#db8645" d="M631.55 413.7c.352 7.775.274 15.361.465 22.94.077 3.039-1.37 3.56-3.914 3.51-5.442-.111-10.888-.05-16.8-.164-1.673-1.816-.789-3.247.19-4.613 4.71-6.568 9.73-12.902 14.72-19.255 1.247-1.588 2.759-2.869 5.339-2.419z"/><path fill="#f3d0a9" d="M206.02 674.01c-.313-17.154-.238-34.119-.096-51.549 1.116-5.816.578-11.211.37-16.579-.06-1.523-.42-2.893 1.258-4.21.726-.11 1.025-.072 1.643.288.293 33.226.267 66.13.109 99.475-3.51-.112-2.662-2.946-2.7-4.914-.181-9.614-.432-19.243 1.1-28.803-.83 2.1.924 4.648-1.684 6.292z"/><path fill="#935530" d="M205.74 515.68c7.52-.224 13.075 4.418 19.478 6.429.312.098.58.371.892.431 7.198 1.386 9.173 6.003 7.8 13.125-6.288-1.022-11.507-4.717-17.186-7.39-5.853-2.756-11.562-5.819-17.566-9.002-1.406-1.715-1.566-3.358-.935-5.499 3.392-2.754 5.008.444 7.517 1.906z"/><path fill="#1f5e5f" d="M343.59 484.62c13.651-.429 27.105-.505 41.032-.535.72 2.633-1.345 3.854-2.844 5.257-2.572 2.408-4.217 5.54-7.017 8.185-1.35.43-2.372.405-3.285-.022-7.286-3.404-15.087-5.098-22.83-7.012-2.803-.692-5.52-1.766-5.055-5.873z"/><path fill="#f7dcbf" d="M209.09 601.81c-2.699.667-2.012 2.635-2.086 4.181-.245 5.136.45 10.297-.712 15.711-.377-4.697-.458-9.69-.609-15.136-1.232-5.357-4.264-9.065-7.777-12.454-9.95-9.598-19.065-19.969-27.972-30.77 5.482-2.745 8.643.243 11.647 4.471.472.071.669-.046 1.13.057.264.219.215.142.173.16 2.112 4.85 6.54 7.705 9.918 11.469 5.204 5.798 11.765 10.268 16.46 17.003.052.678.138.981.321 1.488-.037.58-.043.921-.046 1.517.072.887-.052 1.496-.447 2.303z"/><path fill="#1f5e5f" d="M506.11 507.24c4.193-7.712 9.508-14.639 13.55-22.722 9.227-.358 18.356-.412 27.958-.409-2.727 5.14-5.529 10.507-10.278 14.867-1.802-.427-2.248-1.685-1.808-3.053 1.012-3.145-.549-3.59-3.201-3.723-6.17-.311-11.354 1.39-15.5 6.181-2.383 2.754-4.484 5.734-7.246 8.644-.708.519-1.179.687-2.07.744-.631-.097-.876-.18-1.404-.529z"/><path fill="#60332a" d="M269.14 435.26c-5.072-2.89-5.273-7.528-5.4-12.653 7.775-1.914 15.822-1.254 24.072-2.348.542-.356.781-.41 1.294-.218.456.713.528 1.193.39 2.043-2.83 5.387-6.014 10.231-6.908 16.433-.379.465-.576.61-1.13.659-2.836-5.306-7.692-3.537-12.319-3.916z"/><path fill="#f3d0a9" d="M343.55 484.01c.472 4.42 3.736 5.058 6.8 5.632 8.26 1.546 16.241 3.914 24.204 7.63 1.096.043 1.619.401 2.177 1.258 1.606 2.516 1.17 5.022 1.275 7.852-.043.557-.13.713-.261 1.132-.541 1.104-1.215.894-2.2.362-.472-.383-.65-.549-1.336-1.235-4.658-4.774-10.344-5.982-15.612-7.874-5.153-1.851-10.451-3.34-16.112-4.864-1.97-.812-3.636-1.442-4.74-3.382a344.469 344.469 0 0 1-.604-11.044c1.723-.508 2.75 1.305 4.824 1.075.68 1.057 1.015 2.13 1.585 3.458z"/><path fill="#1f5e5f" d="M550.46 497.92c1.83-4.315 4.085-8.64 6.311-13.293 5.407-.416 10.844-.504 16.748-.61.54 4.118.613 8.254.573 12.879-7.82.268-15.525.04-23.632 1.025z"/><path fill="#cf8752" d="M239.87 725.63c.07-11.869.098-23.287.135-35.175.966-1.259 2.018-1.476 3.53-.742.416 21.223.502 42.195.516 63.166 0 1.095.794 3.068-1.408 3.006-2.283-.064-2.923-1.722-2.907-3.834.067-8.656.067-17.313.134-26.421z"/><path fill="#935530" d="M375.6 506.87c.575.548 1.058.75 1.817.93.8 3.887.8 7.778.249 12.135-4.659-3.15-8.938-5.877-13.03-8.861-3.585-2.615-7.262-3.927-11.643-2.337-.752.272-1.645.176-2.474.218-7.533.378-7.533.376-7.43-7.58 5.207-.77 10.152.573 15.124 1.422 5.318.907 10.764 1.138 16.267 3.075.315.287.374.28.377.31.219.133.435.237.742.688z"/><path fill="#f59b54" d="M623.93 391.71c-3.993.205-7.042-2.782-10.842-3.897-7.108-2.086-14.113-4.526-21.513-6.915-1.653-1.525-2.954-2.954-4.364-4.685 7.227-2.621 14.536-2.435 22.267-.013 5.817 4.408 9.596 10.226 14.452 15.51z"/><path fill="#ed9751" d="M50.29 440.04c-7.046.502-13.983.618-20.914.878-2.377.09-3.057-.859-3.229-3.157-.663-8.888-.746-8.886 7.871-8.94 2.317-.014 4.635.006 7.405.098 2.912 3.96 7.286 6.308 8.867 11.12z"/><path fill="#f7dcbf" d="M767.68 241.17c-8.398-.734-13.938 3.245-18.685 9.755-3.473 4.762-7.99 8.764-12.093 13.434-2.314.433-4.578.538-7.26.61 6.338-7.234 13.409-14.17 19.749-21.72 4.819-5.737 10.488-7.475 17.863-6.343.403 1.327.437 2.61.424 4.264z"/><path fill="#f3d0a9" d="M631.89 413.48c-1.074.833-2.503.956-3.129 1.73-6.265 7.752-13.062 15.117-17.91 24.304-2.262.465-4.52.99-6.919.208 1.987-3.738 3.896-7.33 5.834-11.258 3.201-3.902 5.735-7.913 8.156-12 .91-1.535 1.466-3.375 3.787-4.038 3.528.533 7.04-1.469 10.182 1.055zM332.2 510.32c-9.507-4.728-19.756-6.105-29.83-9.313-1.619-.469-2.807-1.154-4.077-1.38-5.021-.894-6.947-3.836-6.14-9.183.213-1.721-.614-2.632-1.341-3.95.955-.875 3.302 1.163 3.206-2.256 1.939 1.998.732 4.73.852 7.255.11 2.307.684 3.358 3.154 3.923 10.3 2.36 20.474 5.284 30.81 7.446 4.502.941 6.391 2.738 5.342 7.685-.746.858-1.289.596-1.976-.227z"/><path fill="#f4e3c0" d="M314.87 298.59c-5.737-2.821-9.43-8.193-13.918-12.73-3.105-3.139-5.58-6.957-10.013-9.075-.343-.437-.37-.807-.356-1.453-.187-1.081-.038-1.896.078-2.995.114-1.365.126-2.44.113-3.92 2.265-1.697 2.773.702 3.735 1.636 6.662 6.467 13.185 13.079 20.056 19.736.32 2.842.339 5.593.305 8.8z"/><path fill="#f6dab8" d="M342.3 480.14c-2.159 2.932-3.62 2.196-4.877-.854-.852-3.043-2.062-5.513-3.92-7.727-5.862-6.984-9.434-15.567-15.823-22.563-2.888-1.843-4.558-4.043-4.15-7.674 2.362-1.774 3.568.005 5.29 1.351.308.247.223.27.236.229.128.14.243.323.531.78 6.225 8.448 12.2 16.679 18.364 24.766 2.59 3.398 4.282 6.997 4.35 11.692z"/><path fill="#f1c095" d="M205.48 674.29c3.34-2.813.257-6.467 2.532-9.992 0 10.872-.045 20.883.035 30.894.017 2.112-.61 4.315.824 6.52 1.371 10.516.271 20.875.452 31.676.02.671.037.894.03 1.451-.713 3.737-1.974.56-3.155.351-.458-.424-.676-.647-.99-1.1-.134-.193-.373-.414-.447-.556 1.874-11.35 1.06-22.611.705-33.878-.26-8.294-.113-16.6.014-25.365z"/><path fill="#572f27" d="M199.33 512.6c-.316 2.106-.348 3.83-.39 5.987-.49.334-.998.303-1.45.128-9.384-3.63-9.431-2.696-10.461-14.487-.157-1.791-.008-3.61.036-5.887 3.331-.395 6.626-.318 10.37-.209 4.98 4.23 2.958 9.235 1.895 14.467z"/><path fill="#c6753a" d="M193.49 396.89c-3.202-.172-3.472-1.958-3.435-4.208.099-5.992.069-11.986.209-18.449 1.74-1.491 3.152-.802 4.826.342.598 8.438 6.078 12.722 12.308 16.58 1.788 1.108 4.372 2.109 3.123 5.425-5.758 1.324-11.2 1.011-17.03.31z"/><path fill="#7c422b" d="M294.58 445.65c.365 7.392.365 14.464.304 22.014-7.3-4.846-13.142-11.013-12.898-21.273 3.978-2.578 8.082-2.237 12.594-.742z"/><path fill="#f6dab8" d="M594.62 590.26a593.557 593.557 0 0 1-17.323 25.598c-1.942 2.715-3.665 5.492-5.152 8.842-.436.657-.814.783-1.491.48-1.428-6.101-.047-11.078 4.087-15.64 4.871-5.377 9.42-11.08 13.704-16.936 1.666-2.278 3.385-2.709 6.175-2.344z"/><path fill="#db8645" d="M374.8 505.8c-10.497-.195-20.821-1.862-31.313-4.668-.5-1.102-.683-2.008-1.112-3.164-1.581-1.524-1.616-2.994-.555-4.908 9.977 1.84 19.323 4.932 28.4 8.799 1.755.747 3.643 1.641 4.58 3.941z"/><path fill="#a15e31" d="M211.16 441.3c.174-7.727-.465-15.125-1.015-22.976 2.722-.4 3.899.89 3.913 3.59.01 1.782.995 3.639.722 5.329-1.808 11.177 6.933 15.788 13.38 21.786 2.05 1.907 4.329 3.553 5.86 6.328-2.178 1.036-4.326.588-5.856-1.06-4.869-5.246-10.989-8.78-17.004-12.997z"/><path fill="#6c382a" d="M617.99 613.44c4.38-3.457 8.776-6.455 13.499-9.546.589 1.904.273 3.806-.147 5.788-.492 2.325-1.291 3.62-3.855 3.335-3.549-.394-4.483 1.485-4.575 4.766-.183 6.599.852 13.24-.77 19.81-.43 1.737-1.068 3.082-2.818 4.24.256-9.244-1.11-18.57-1.334-28.393z"/><path fill="#c0733a" d="M53.73 261.2c7.452 4.025 15.157 7.089 23.052 10.5-2.814 2.313-6.358 1.64-9.396 1.097-6.144-1.097-12.255-.567-18.834-.812-1.517-4.975 3.138-7.055 5.178-10.785z"/><path fill="#f2d8b9" d="M544.5 346.39c2.758 3.29 5.245 6.358 8.035 9.571 1.05 3.395 4.458 4.505 6.119 7.473-.08.78-.463 1.087-1.349 1.271-6.517-2.275-10.359-7.426-14.54-11.98-4.565-4.974-8.696-10.359-13.473-15.647-.46-1.704-.724-3.104-1.144-4.83.211-3.615 1.44-3.346 3.247-1.2A1463.894 1463.894 0 0 0 544.5 346.39z"/><path fill="#1f5e5f" d="M443.59 446.04c-3.489 1.7-7.607 2.738-12.344 3.06-1.603 1.109-2.97 1.54-4.84 1.116-10.59-.224-20.876-.197-31.162-.292-1.283-.012-3.573.917-3.63-1.224-.051-1.891 2.153-1.542 3.98-1.683 1.458-.014 2.528-.008 4-.02 4.276-2.196 8.439-1.469 12.983-1.099 10.466.122 20.503.126 31.013.142z"/><path fill="#24a5a0" d="M377.18 498.57c-.884-.074-1.447-.413-2.14-.966 1.155-5.996 6.396-8.71 9.884-13.195 3.139-.302 6.11-.322 9.52-.28-2.535 3.739-5.798 7.253-7.262 11.877-.584 1.845-1.76 2.057-3.348 2.061a46.143 46.143 0 0 0-6.654.504z"/><path fill="#e7934e" d="M243.93 689.51c-1.089.472-2.12.48-3.538.486-.39-12.026-.395-24.049-.375-36.542.913-1.366 1.82-2.22 3.536-1.648.336 12.57.386 24.906.377 37.704z"/><path fill="#db8645" d="M240.21 612.71c-6.147.683-10.778 4.21-16.329 6.145-.391-3.328-.465-6.704-.396-10.53 5.17-2.077 10.345-1.046 15.903-1.297 2.17 1.593 2.016 3.421.821 5.682z"/><path fill="#572f27" d="M172.15 399.4c-13.792.405-27.512.468-41.702.548-2.307-1.173-4.467-.9-7.321-1.182 1.954-.692 3.119-1.104 4.593-1.672 2.419-1.962 4.995-1.654 7.46-1.657 12.812-.015 25.624-.134 38.91.191 1.114.043 1.74.14 3.14.822-.614 2.699-3.652.318-5.08 2.95z"/><path fill="#a15e31" d="M320.81 523.16c5.417 4.84 8.604 11.071 11.305 17.966-10.629 1.928-10.629 1.928-11.965-11.675.5-1.223.372-2.087.056-3.191-.217-.242-.299-.637-.326-.835.2-.824.426-1.45.93-2.266z"/><path fill="#f1c095" d="M239.91 613.5c-.027-2.169-.003-3.887-.024-6.03-.002-5.802.043-11.177.116-17.02 1.065-.778 2.102-1.086 3.464-1.435.386 10.988.446 22.018.441 33.51-.901 1.42-1.797 2.248-3.505 1.66-.332-3.573-.387-6.903-.492-10.684z"/><path fill="#f4e3c0" d="M319.05 442.58c-1.808.679-2.742-1.292-4.754-1.534-.777.12-1.167.067-1.714-.463-.662-1.128-.947-2.137-2.147-2.874-2.387-2.159-3.84-4.612-5.303-7.455a49.95 49.95 0 0 1-.686-1.848 19.364 19.364 0 0 1-.394-1.223c-.304-1.573-.766-2.671-2.357-3.34-2.223-1.613-3.207-4.028-5.616-5.509-.356-2.182 1.026-2.615 2.829-2.942 3.197-1.049 4.085 1.083 5.22 2.922 4.93 7.986 9.891 15.952 14.922 24.266z"/><path fill="#572f27" d="M598.61 504.54c7.404.346 14.434.39 21.933.455.468.755.467 1.489.469 2.588-10.373.39-20.748.414-31.594.475-4.332 2.443-8.1 1.169-12.278-.443-1.587-.434-2.76-.673-4.819-1.091 2.236-.612 3.577-.979 5.246-1.497 3.066-.12 5.804-.087 8.994-.095 4.127-1.392 7.837-2.136 12.049-.392z"/><path fill="#1f5e5f" d="M448.39 446.36c-1.396-.05-2.498-.013-3.993-.123.153-.498.698-.847 1.587-1.233 40.696-.005 81.047.021 121.4.071 2.312.003 4.624.201 7.258.557-33.581.301-67.484.35-101.39.409-7.48.012-14.959.054-22.913.133-.85.226-1.245.3-1.951.186z"/><path fill="#af6735" d="M139.18 563.57c-2.534.58-3.832 2.338-4.97 4.112-.857 1.336-1.706 2.38-3.788 2.288-.7-.081-.969-.264-1.277-.77.215-6.933.536-13.644.927-20.813 2.322-1.523 3.08.33 3.746 1.685 2.094 4.259 4.33 8.475 5.362 13.499z"/><path fill="#e6a779" d="M240.07 624.41c1.084-.765 2.108-1.058 3.455-1.388.366 9.335.409 18.706.385 28.547-1.112.773-2.16 1.076-3.535 1.395-.34-9.35-.352-18.716-.305-28.554z"/><path fill="#452524" d="M656.55 440.05c8.743 1.234 17.099.818 25.886 1.014.257 2.255-1.498 1.893-2.899 1.87-11.223-.184-22.387 1.614-34.092.968-.47-.994-.47-1.964-.488-3.297 3.698-.41 7.416-.456 11.593-.555z"/><path fill="#f3d0a9" d="M386.86 395.36c3.974-1.189 5.996 1.597 8.775 3.538 3.653 1.188 5.238 4.355 8.066 6.599 2.16 2.803 4.873 5 3.737 9.09-2.775 1.925-4.094-.262-5.589-1.578-4.278-3.766-7.667-8.504-12.94-11.736-1.785-1.718-3.132-3.284-2.05-5.913z"/><path fill="#572f27" d="M91.41 248.86c4.738 2.87-.79 2.014-.935 3.205-10.015.07-19.734.054-29.912.08-.359-2.26-1.367-3.411-4.15-3.134-.404-.405-.41-.805-.418-1.503 1.73-.379 3.464-.459 5.63-.523.988.053 1.532.143 2.476.382 7.242.444 14.082.185 21.357.23 2.24-.086 4.016-.026 5.952 1.263z"/><path fill="#60332a" d="M274.08 327.21c3.047 2.271 5.978 4.928 7 9.366-6.36-.003-11.971 3.253-18.663 4.375 3.227-5.48 8.907-8.178 11.664-13.74z"/><path fill="#905530" d="M329.25 474.54c.53 2.005.645 3.767.774 5.97-8.535-.32-17.021-1.405-25.494-4.505-.277-2.363 1.557-1.961 2.887-1.95 7.14.063 14.286-.458 21.833.485z"/><path fill="#854a2c" d="M90.23 403.39c5.966 3.734 12.069 7.452 19.501 9.24-4.366.627-9.008.832-13.6 1.427-5.021.651-6.632-1.589-6.07-6.228.158-1.313.057-2.657.169-4.439z"/><path fill="#1b847e" d="M402.98 406.14c-2.501-2.28-4.662-4.385-6.92-6.808 5.323-2.938 9.818-.628 14.03 2.517 1.715 1.28 3.084 3.023 4.732 4.867-.52.303-1.161.296-2.125.3-3.361.047-6.462.859-9.717-.876z"/><path fill="#572f27" d="M193.08 397.08c5.633-1.704 11.326-.653 17.432-1.043 5.373-2.29 8.973-1.607 11.682 2.546-3.98.616-7.748.813-11.895 1.18-2.303 1.836-4.393 1.85-6.919.448-3.239-2.053-6.421-.797-9.894-1.181-.437-.52-.434-1.04-.407-1.95z"/><path fill="#1b847e" d="M298.97 415.12c-.622.981-1.543 1.64-2.63 2.52-1.61 2.368-3.824 2.788-6.528 2.76-.574-.216-.793-.289-1.354-.402-4.566-1.95-9.145-.196-13.503-1.604 7.79-1.941 15.195-6.164 24.015-3.274z"/><path fill="#f4e3c0" d="M126.29 439.99c-3.931-5.202-7.508-10.318-11.182-15.772 2.62-.79 4.162 1.156 5.71 2.754 3.967 4.092 7.776 8.337 11.733 12.614-2.07 1.555-4.032.393-6.261.403z"/><path fill="#f7dcbf" d="M50.48 440.46c-2.174-4.336-7.495-5.887-8.603-11.092 2.58-.958 4.387.52 6.215 1.95 3.68 2.881 7.362 5.757 12.13 9.483-3.055 0-4.767 0-6.899-.06-.418-.061-.844-.18-1.064-.155a9.447 9.447 0 0 1-1.779-.126z"/><path fill="#e6a779" d="M91.73 488.99c-.153-1.742-.205-3.51-.305-5.655-.047-.375.026-.665-.035-.802.02-1.05.162-1.958.25-3.21.12-8.685.15-17.036.133-25.854-.46-2.853-.231-5.254.066-8.017 12.957-.396 25.652-.426 38.821-.361.474.093.478.441.498.613-11.128.208-22.277.38-33.42.201-3.678-.058-4.935.982-4.856 4.772.24 11.477.118 22.962.16 34.917.838 1.501.747 2.464-.595 3.355-.41-.01-.616.014-.716.041z"/><path fill="#f1c095" d="M570.32 625.42c.45-.447.803-.432 1.424-.406.285 5.102.255 10.194.354 15.283.03 1.548-.675 3.335 1.378 4.67 1.9 1.688 1.138 3.524.753 5.164-.787 3.355-.722 6.739-.919 10.517-.678.972-1.227 1.555-2.069 2.218-.547-.75-.802-1.58-1.188-2.713 1.089-9.802.386-19.326.257-28.843-.024-1.81-.056-3.619.01-5.89z"/><path fill="#f4e3c0" d="M613.42 571.94c-5.408 2.863-8.273 8.48-12.248 13.428-2.012.42-3.914.549-5.815.678 6.024-4.798 7.548-14.995 18.063-14.105z"/><path fill="#a66032" d="M341.92 492.51c.206 1.61.176 3 .177 4.8-11.6-1.18-9.615-.059-10.167-11.855 2.564.359 2.74 3.566 5.43 4.604a59.804 59.804 0 0 1 4.56 2.45z"/><path fill="#572f27" d="M295.36 445.93c-4.429.047-8.438.051-12.911.045-.142-.788.18-1.565.531-2.659 2.782-2.659 6.087-1.515 9.65-1.767 4.788-.211 9.101-.085 13.414-.06 1.495.008 3.012.057 4.406.644 1.176.496 2.768 1.024 2.395 2.614-.299 1.274-1.813 1.21-2.978 1.227-1.325.018-2.657.089-4.384-.482-3.58-.945-6.608.23-10.123.438z"/><path fill="#a15e31" d="M386.66 395.07c-.028 2.215 1.662 3.507 2.781 5.405.18.542.146.798-.182 1.31-5.013-1.102-9.732-2.456-14.841-3.83-1.286-.78-2.18-1.544-3.181-2.578 4.912-.291 9.929-.31 15.423-.307z"/><path fill="#cf8752" d="M526.38 775.79c-.282-22.511-.216-45.274.079-68.366.658 22.485.74 45.3-.079 68.366z"/><path fill="#f1c095" d="M609.61 376.01c-6.988.136-14.288.038-22.049-.077-.462-.018-.532-.03-.514-.062-.573-.605-.737-1.286-.237-2.342 6.157-.37 12.059-.442 17.959-.58 2.179-.052 3.875.512 4.841 3.061z"/><path fill="#cf8752" d="M331.98 510.52c.535-.209 1.066.037 1.878.373 1.738 9.974 1.283 19.903.567 30.055-1.076-9.84-1.763-19.907-2.445-30.428z"/><path fill="#572f27" d="M578.06 590.39c-6.275-.813-12.657-.149-19.454-.495-.625-.127-.793-.23-1.089-.598-.153-.461-.178-.657-.154-1.144.146-.463.244-.635.624-.892 6.554-.15 12.826-.213 19.567-.24.473 1.026.476 2.014.506 3.369z"/><path fill="#e6a779" d="M178.84 395.76c2.455-4.722.602-9.84 1.275-14.778.221-1.622-.97-3.732 1.859-4.742.563 5.657.515 11.375.928 17.059.246 3.397-1.362 3.895-4.464 3.636-.426.042-.391-.184-.4-.297-.08-.267-.15-.42-.075-.777.314-.209.483-.211.877-.1z"/><path fill="#452524" d="M329.63 474.42c-8.286.56-16.61.753-25.201 1.244-1.3-.1-1.413-.979-1.431-2.248 3.39-.396 6.784-.454 10.63-.626 1.813-.06 3.174-.006 4.943.013.854-.208 1.315-.277 2.118-.107 3.134.906 6.311-.926 8.941 1.724z"/><path fill="#cf8752" d="M285.72 538.61c.728-.143 1.217.017 1.952.256 2.17 5.883 2.489 11.975 3.44 17.952.197 1.24-.302 2.256-1.703 3.17-.617-5.288-2.67-10.528-2.484-16.5-1.114-1.605-2.026-2.833-1.205-4.879z"/><path fill="#e6a779" d="M574.56 381.85c-.137.56-.522.913-1.181 1.318-3.499-2.48-6.725-5.014-10.177-7.782-.731-.842-1.008-1.528-.853-2.702.484-1.101 1.124-1.475 2.285-1.674 3.48 3.53 6.578 7.081 9.925 10.84z"/><path fill="#854a2c" d="M293.37 442.48c-3.301.42-6.373.46-9.902.51-2.513-.2-2.427-1.707-2.38-3.547.195-.383.379-.403.839-.444 3.665-2.439 6.976-.558 10.684.396 1.037.944 1.175 1.784.759 3.085z"/><path fill="#219289" d="M458.3 450.66c13.042-1.024 26.467-.48 40.343-.36-13.011 1.219-26.495.536-40.343.36z"/><path fill="#452524" d="M668.24 347.24c-.439 10.295.275 20.777.072 31.25-.035 1.812-.291 3.62-.797 5.74-.412-3.26-.473-6.828-.562-10.876-.005-7.399-.014-14.319.068-21.237.019-1.586-.523-3.324 1.22-4.876z"/><path fill="#f1c095" d="M195.37 375.27c-1.705-.671-3.008-1.063-4.654-1.481-.39-.43-.438-.833-.415-1.532.07-.297.19-.744.417-.792 2.972-.134 5.717-.22 8.916-.212.441.963.43 1.832.436 3.026-1.106 2.078-2.654 1.894-4.7.991zM564.88 370.68c-.326.635-.79.969-1.556 1.333-4.157-1.015-6.46-3.585-7.413-7.688.753-.38 1.373-.423 2.456-.524 2.434 2.153 4.404 4.365 6.513 6.879z"/><path fill="#af6735" d="M644.04 412.48c2.013 4.638.574 9.93.905 15.123.241 3.776.06 7.58.073 11.83-2.106-2.18-.858-5.254-.962-8.103-.223-6.122-.078-12.257-.016-18.849z"/><path fill="#452524" d="M644.61 460.35c.325 7.033.38 14.371.406 22.177-2.062-6.926-.811-14.415-.406-22.177z"/><path fill="#572f27" d="M621.26 524.7c-.277-4.73-.25-9.747-.162-15.225 1.648 4.634.906 9.79.162 15.225z"/><path fill="#219289" d="M520.31 450.63c3.692-.957 7.777-.47 12.298-.36-3.65 1.175-7.803.564-12.298.36zM440.39 450.62c2.704-.268 5.739-.35 9.21-.292-2.638 1.105-5.767.532-9.21.292z"/><path fill="#a15e31" d="M743.42 264.94c2.28-1.541 5.142-.85 8.29-.382-2.404.303-5.123.381-8.29.382z"/><path fill="#935530" d="M91.84 445.05c.204 2.388.14 4.74-.015 7.523-1.51-1.82-.53-4.314-.8-7.1.19-.434.369-.447.815-.423z"/><path fill="#673529" d="M544.62 308.27c.298 1.768.352 3.817.356 6.302-1.585-1.6-.982-3.82-.356-6.302z"/><path fill="#24a5a0" d="M426.28 450.27c1.163-.571 2.51-.87 4.192-1.148.347.225.358.427.34.93-1.431 1.253-2.885.976-4.532.218z"/><path fill="#cf8752" d="M516.05 777.35c1.133-.011 2.192.305 3.562 1.11.31.488.363.535.367.5-.71.777-1.738.39-2.919.78-.57-.013-.79-.199-1.127-.576-.086-.599-.021-1.042.117-1.814z"/><path fill="#e6a779" d="M586.77 373.17c.302.727.302 1.373.301 2.341-.563-.168-1.125-.658-1.893-1.353.293-.492.791-.78 1.592-.988z"/><path fill="#b16836" d="M605.63 590.18c-.73.995-1.942.87-3.415.231.851-.256 1.937-.304 3.415-.231z"/><path fill="#e6a779" d="M182.41 371c-.258-.867-.36-2.025-.395-3.614.957.726.736 2.027.395 3.614z"/><path fill="#452524" d="M517.11 779.91c.481-.357 1.33-.677 2.527-.991-.211 1.02-1.164 1.078-2.527.991z"/><path fill="#7c422b" d="M319.98 526.39c1.056.29 1.144 1.178.395 2.422-.275-.54-.34-1.292-.395-2.422z"/><path fill="#cf8752" d="M523.39 777.15c.092-1.048 1-1.146 2.309-1.133-.424.384-1.199.756-2.309 1.133zM520.03 778.02c.554-.964 1.47-1.03 2.781-.936.354.043.291.447.231.642-.635.843-1.398.744-2.498.6-.355-.124-.463-.244-.514-.306z"/><path fill="#452524" d="M520.13 778.39c.762-.272 1.458-.356 2.506-.454-.149.974-1.054 1.066-2.358 1.032-.35-.019-.213-.39-.148-.578z"/><path fill="#572f27" d="M582.15 587.25c.29-.242.733-.268 1.508-.282-.071.722-.59 1.04-1.508.282z"/><path fill="#987766" d="M209.01 602.1c-.052-.675.057-1.266.347-2.095.269.326.355.892.3 1.869-.14.411-.487.31-.647.226z"/><path fill="#854a2c" d="M90.01 397.33c.687.05 1.008.552.37 1.477-.253-.272-.315-.708-.37-1.477z"/><path fill="#987766" d="M209.46 735.03c-.204-.083-.265-.305-.235-.863.186.018.282.37.235.863z"/><path fill="#ed9751" d="M205.08 734.17c.293-.141.534.065.813.563-.2.048-.501-.12-.813-.563z"/><path fill="#3d272c" d="M507.09 782.88c-.014-.169.218-.406.688-.72.011.167-.216.41-.688.72z"/><path fill="#c6753a" d="M190.77 371.38c.194.262.102.428-.245.557-.288-.255-.218-.461.245-.557z"/><path fill="#f4e3c0" d="M115 423.97c-.014.094-.074-.167-.142-.139-.068.028.156.045.142.139z"/><path fill="#ed9751" d="M52.24 440.71c-.035-.407.212-.474.594-.164.061.136-.384.261-.594.164z"/><path fill="#f4e3c0" d="M319.78 443.72c-.298.096-.494-.124-.664-.633.301-.147.548.055.664.633z"/><path fill="#219289" d="M581.14 450.56c.01-.19.397-.279.958-.248-.078.197-.328.273-.958.248z"/><path fill="#a15e31" d="M236.24 455.8c.026-.147.309-.214.689-.142-.08.166-.256.194-.689.142z"/><path fill="#572f27" d="M621.24 504.9c-.128-.218.051-.48.524-.804.149.222-.02.496-.524.804z"/><path fill="#935530" d="M234 536.35c.258-.222.546-.074.873.436-.182.08-.477-.064-.873-.436z"/><path fill="#c0733a" d="M223.14 592.27c.156.006.273.271.263.644-.186-.057-.244-.221-.263-.644z"/><path fill="#987766" d="M209.68 597.99c-.257-.067-.391-.372-.422-.914.25.067.398.372.422.914z"/><path fill="#f4e3c0" d="M648.8 257.74c-.417-2.984-.5-5.92-.621-9.303 3.025-1.136 3.538 1.778 4.737 3.28 14.07 17.598 27.991 35.314 42.2 53.26 4.264 4.219 9.088 7.666 8.75 14.421-1.63.794-2.917.804-4.456-.24-.29-.285-.287-.315-.273-.325-5.879-7.577-11.656-15.236-17.69-22.688-9.823-12.13-19.817-24.12-29.725-36.181-.735-.895-1.284-1.973-2.921-2.225z"/><path fill="#673529" d="M704.48 319.45c-2.126-5.318-6.072-9.104-8.975-13.949 5.41-1.733 7.927-6.813 11.933-10.493.97 8.415.08 17.04.338 26.097-2.373 2.356-2.804.373-3.296-1.654z"/><g fill="#e5f9f7"><path d="M205.09 109.78c.797-.837 1.513-1.33 1.965-2 2.67-3.957 4.694-3.067 7.85.001 4.225 4.107-.404 5.042-1.764 7.2-1.992 3.16-3.698 1.76-5.112-.477-.977-1.546-3.753-1.824-2.939-4.724zM586.19 124.82c4.03 3.898 3.154 8.625-1.619 10.384-.777.286-6.954-4.641-6.739-5.632.597-2.748 3.327-3.866 4.963-5.847 1.377-1.667 2.21.076 3.395 1.095zM502.13 150.01c-3.693 3.677-6.332 3.45-8.54-1.016-1.533-3.102 2.495-3.607 3.488-5.651.85-1.748 2.461-1.307 2.94.13.714 2.144 6.384 2.485 2.112 6.537z"/></g><path fill="#987766" d="M91.65 248.87c-1.511.217-3.122.147-5.139.078-7.798-1.078-15.239-.104-23.065-.721-.732-.321-.993-.511-1.29-1.001 7.19-1.953 14.59-.767 21.928-1.108 1.97-.091 3.948 0 6.362.106.66.854.882 1.606 1.204 2.646z"/><path fill="#e5f9f7" d="M249.29 220.73c1.158 2.285 6.234 3.026 2.02 6.676-3.042 2.635-6.85 2.275-7.507-1.636-.455-2.711 1.932-5.017 5.487-5.04zM680.83 171.28c1.292-2.489 1.473-7.143 6.124-3.702 2.94 2.175 1.496 3.805-.28 5.887-2.382 2.793-3.19.234-4.489-.95-.366-.335-.745-.655-1.355-1.235z"/><path fill="#572f27" d="M36.65 247.1c-.091.691-.593.952-1.435.305.272-.248.695-.311 1.435-.305z"/><path fill="#1a5252" d="M493.15 604.51c-.003.632-.071.8-.23 1.228-5.743.254-11.397.249-17.524.23-4.732-1.577-9.636-.673-13.807-3.771 9.95-9.332 20.12-18.322 30.477-27.588.189-.276.579-.245.766-.187 1.58 1.513 1.49 3.145.518 5.207-.253 8.375-.26 16.396-.2 24.881z"/><path fill="#1b847e" d="M506.79 507.25c.669-.241 1.104-.26 1.865-.295 4.65 1.786 8.711 3.906 10.553 8.867-3.993 6.448-9.904 10.14-16.072 14.056-7.49.15-14.786.003-22.53-.212 1.905-3.992 5.994-6.123 9.404-8.753 4.335-3.342 8.398-6.906 12.646-10.8 2.01-.237 2.774-1.702 4.133-2.863z"/><path fill="#1b7570" d="M461.08 602c4.699.889 9.207 1.563 13.62 3.685-4.507.279-9.236.283-14.448.232-.301-1.34-.569-2.748.827-3.917z"/><path fill="#fdfbf7" d="M415.91 255.88c.008-2.142.25-3.847-.026-5.465-.793-4.663 1.349-5.518 5.557-5.4 3.51.097 4.906 1.04 4.353 4.53-.128.813-.036 1.663-.015 2.496.074 2.993-.72 6.42.488 8.856 1.22 2.462 5.096 1.326 7.73 2.166 13.634 4.348 18.022 22.911 7.781 33.633-1.6 1.675-2.748 2.362-.005 4.264 7.885 5.47 10.7 13.541 8.46 22.664-2.222 9.05-9.482 16.257-18.592 17.172-4.813.484-6.382 2.162-5.781 6.736.3 2.29-.207 4.685.073 6.98.483 3.944-1.314 4.568-4.849 4.68-4.042.128-5.308-1.167-4.903-5.062.309-2.965.007-5.99.084-8.986.061-2.378-.026-4.15-3.345-4.041-3.036.1-4.142 1.085-3.96 4.122.209 3.484-.169 7.006.079 10.485.263 3.703-2.008 3.593-4.441 3.363-2.191-.208-5.35 1.215-5.168-3.167.152-3.655-.16-7.329-.042-10.988.083-2.594-.88-3.642-3.48-3.41-1.652.149-3.329.016-4.994-.004-8.086-.096-6.507.599-6.987-6.948-.288-4.535 1.284-6.087 5.575-5.357 4.91.834 6.014-1.353 5.903-6.063-.351-14.981-.32-29.976-.118-44.961.053-3.944-1.017-5.2-4.988-5.003-5.77.286-8.301-3.86-6.204-9.401.34-.898.867-1.373 1.762-1.45.995-.086 1.995-.116 2.993-.146 10.102-.306 10.139-.305 10.142-10.731 0-3.55-.729-6.934 5.074-6.518 3.89.278 5.424 1.146 4.947 5.089a26.11 26.11 0 0 0 .05 6.481c.29 2.196-1.651 5.555 3.189 5.655 5.038.105 3.296-3.345 3.658-6.27z"/><path fill="#5ee4e2" d="M408.65 516.81c9.379.137 18.421.137 27.464.137l.295 1.13c-8.925 5.89-17.85 11.78-27.04 17.886-3.87 4.707-9.058 7.159-13.7 10.192-10.677 6.977-21.258 14.094-32.15 21.396-8.318 5.532-16.54 10.553-24.495 15.968-8.73 5.943-18.2 10.216-28.112 13.651-4.657 1.614-8.663 4.144-11.848 8.443-2.9.23-5.49.264-8.515.292-2.388-3.296 1.939-4.229 2.162-6.859-5.228-2.489-11.08-.854-16.63-2.797 7.48-6.014 16.087-10.321 24.331-15.22 33.384-19.834 66.82-39.581 100.43-59.633.56-.796 1.155-.864 1.918-1.219.216-.193.236-.177.232-.188 1.234-1.978 2.981-3.127 5.66-3.18z"/><path fill="#219c97" d="M275.5 596.02c5.593.104 10.858-.01 16.065.91 1.262.223 3.024-.312 3.591 1.025.727 1.711-1.327 2.303-2.169 3.37-1.004 1.273-2.506 2.169-2.88 4.24-.196.386-.402.435-.918.555-9.644.071-18.977.071-28.311.071l-.317-1.276c4.865-2.957 9.731-5.913 14.938-8.895z"/><path fill="#1a5252" d="M409.05 516.61c-1.835 1.31-3.611 2.286-5.724 3.314-.749-1.753.92-4.499-2.97-4.94 6.28-4.785 13.891-7.113 22.78-9.097-4.606 4.742-10.48 6.022-14.086 10.723zM402.67 520.01c-.147.33-.598.681-1.342 1.075.15-.323.594-.688 1.342-1.075z"/><path fill="#5de6e6" d="M367.25 605.66c-.376.279-.543.31-.959.389-.425.153-.601.258-1.045.212-14.62-.182-28.975-.213-43.799-.237-.47.007-.443-.006-.438-.02 1.657-6.067 6.74-9.204 11.277-12.516 10.207-7.45 21.106-13.893 31.92-21.101 14.665-9.638 28.886-19.298 43.211-28.802 1.93-1.28 3.817-2.622 6.438-3.334 12.958-7.754 25.037-16.195 37.142-24.59 3.573-2.477 7.214-3.694 11.572-3.595 7.46.17 14.928-.037 22.848-.034-29.442 27.19-62.013 50.974-94.253 75.685-8.027 6.083-15.866 11.889-23.915 17.944z"/><path fill="#219c97" d="M364.99 606.32c.169-.25.345-.286.788-.275.129.34-.078.566-.57.821-.214.092-.21-.333-.218-.546zM364.93 572.59c-8.607 7.117-18.155 12.471-27.271 18.468-6.159 4.052-11.633 8.755-16.536 14.62-7.202.31-14.297.303-21.879.215-.328-3.572 2.2-5.334 4.792-6.805 2.585-1.467 5.327-2.785 8.156-3.674 18.734-5.886 33.606-18.517 50.37-28.515 1.975 1.364 1.816 3.474 2.368 5.69z"/><path fill="#d78140" d="M91.97 489.22c.921-.795.987-1.651 1.076-2.83 5.22-5.284 8.452-11.73 12.852-17.298 3.793-4.8 3.624-4.834 8.113-.627 8.305 7.782 15.865 16.685 27.744 19.352 1.879.422 2.126 1.357 1.804 3.245-1.216 7.145-1.291 14.506-3.871 21.387-.964 2.57.581 3.456 2.359 3.98 2.867.843 3.494 2.796 4.072 5.48 2.572 11.941 5.487 23.808 8.217 35.715.404 1.759.485 3.59.736 5.813-4.27 3.174-8.766 2.39-13.697.921-.835-.31-1.258-.342-1.999-.395-3.731-4.965-4.337-11.37-8.897-15.961-.362-.492-.39-.915-.407-1.658.117-.502.224-.685.103-1.09-.228-.22-.36-.65-.432-.864.019-18.64.118-37.068.177-55.496.002-.762-.13-1.85-.623-2.22-1.06-.797-1.779.35-2.437.996-11.834 11.616-23.146 23.729-34.56 36.18-.491-9.928-.683-20.008-1.013-30.477-.66-.728-.837-1.197-.345-2.06.532-.78.742-1.297 1.028-2.092z"/><path fill="#ed9751" d="M169.73 563.02c8.268 8.433 16.256 16.864 24.18 25.354 3.397 3.64 7.188 6.897 10.152 10.973 1.38 1.897 2.064 3.722 1.661 6.372-7.234 1.16-13.484 4.563-20.389 7.12-.394-3.144-.493-6.434-.519-9.724-.018-2.375-.25-4.605-3.528-5.795 4.13-.554 7.599-.332 11.277-1.757-4.344-1.47-8.458-1.474-12.987-1.668-.478-.442-.517-.853-.578-1.573-4.707-9.063-9.155-17.916-11.237-27.978.703-.643 1.182-.973 1.968-1.325z"/><path fill="#af6735" d="M167.53 563.99c4.135 9.12 7.81 18.193 11.469 27.647-3.46 2.482-5.521-.038-7.856-1.887-9.612-7.61-18.725-15.844-28.741-22.951-.618-.439-.902-1.35-1.392-2.378 4.345-.379 8.74-.419 13.606-.509 4.466-.023 8.46.004 12.913.078z"/><path fill="#382431" d="M182.96 567.82c-.185.374-.38.479-.843.382-.063-.752.2-1.154.843-.382z"/><path fill="#985832" d="M69.43 334.88c.194-1.462.858-2.867 1.557-4.616 6.652-1.845 13.343-2.008 20.49-1.332 3.388 2.71-.311 3.653-1.134 5.675-.266.309-.354.4-.398.448-6.712-.008-13.38-.063-20.515-.175z"/><path fill="#1b847e" d="M365.27 572.85c-2.765-1.016-2.152-3.262-2.332-5.63 9.727-7 19.47-13.62 29.252-20.183 5.384-3.612 10.834-7.123 16.585-10.768 1.991.947 2.52 3.287 5.055 3.763-12.84 9.776-26.774 18.387-40.346 27.534a246.1 246.1 0 0 1-8.214 5.284z"/><path fill="#d78140" d="M573.52 660.98c-2.862-5.118-.685-10.104.296-15.522 2.606-4.143 5.21-7.873 7.703-11.676.92-1.405 1.668-2.867 4.012-2.84.41 6.71.462 13.45.564 20.663-.008.893-.064 1.311-.167 2.042-4.82 1.315-7.478 5.97-12.408 7.333z"/><path fill="#f1c095" d="M568.29 665c.138-.365.576-.698 1.298-1.06-.144.344-.571.718-1.298 1.06z"/><path fill="#f39951" d="M178.26 395.67c-.152.22-.201.537-.218.696-.465.226-.914.293-1.704.342-1.148-.262-1.996-.325-2.803-.2-4.52.694-7.169-.56-7.559-5.737-.257-3.419-3.223-5.663-5.503-8.045-7.668-8.01-16.126-15.272-22.992-24.038-3.249-4.148-6.55-8.204-11.153-11.513-3.246-3.986-6.797-7.125-10.918-10.129-2.247-1.747-3.638-3.547-2.33-6.595 2.272-1.799 4.57-1.907 6.878-1.907 7.378 0 14.755-.092 22.573.062 1.867.084 3.279.529 5.139.257 4.352-.099 5.088 2.584 5.179 5.613.128 4.306.276 8.63.03 12.924-.235 4.099 1.323 6.715 4.735 9.017 5.885 3.973 11.294 8.65 17.15 12.67 3.055 2.098 3.66 4.775 3.608 8.033-.09 5.631-.124 11.263-.152 17.356.083.633.138.803.04 1.194z"/><path fill="#c0733a" d="M126.07 347.33c6.454 1.026 9.13 6.707 12.789 11.151 6.863 8.336 15.03 15.379 22.373 23.228 3.047 3.257 6.304 6.172 6.535 11.442.215 4.905 5.08 1.872 7.913 3.316-15.36.32-31.039.426-47.182.5a897.55 897.55 0 0 0-2.428-49.638zM112.52 330.3a93.461 93.461 0 0 1 2.532 6.223c-7.976-.28-16.025-.916-24.52-1.58-.767-2.108-.562-3.887 2.29-4.523 6.62-3.073 13.016-2.553 19.698-.12z"/><path fill="#cc793b" d="M713.71 294.31c8.255-2.645 16.126-5.894 24.921-7.303 2.406 7.963 1.421 16.053.97 24.047-.144 2.57-3.36 4.307-5.646 5.976-3.84 2.805-7.5 5.582-5.168 11.383.924 2.298-.41 3.652-3.106 3.598-6.299-.127-12.6-.086-19.374-.19-.939-4.013 2.667-2.142 4.434-3.545 3.063-.8 2.074-3.038 2.144-4.668.413-9.624-.378-19.279.825-29.298z"/><path fill="#f59b54" d="M710.64 327.96c.113 3.307-3.614.96-4.672 3.464-3.047.13-6.085 1.375-8.995-.763 1.059-2.352 3.05-1.48 4.725-1.704 1.25-.168 3.172.295 3.412-1.136.34-2.027-1.969-1.574-3.133-2.19-.423-.223-.92-.31-1.737-.564-1.069-1.8-1.442-3.552-1.169-5.797 1.563-.368 3.077-.34 5.054-.256 1.405.836 1.291 2.707 3.378 2.565 1.55 1.903-1.366 5.46 3.137 6.381z"/><path fill="#db8645" d="M95.77 299.67c1.754 2.609 2.153 5.252 2.966 8.089 3.15 6.26 5.707 12.351 4.24 19.575-4.658 1.56-8.963 1.683-13.57-.156 1.202-2.56-.213-4.765-.237-6.98-.08-7.196.134-14.395.517-21.9 2.62-1.85 4.358-.908 6.084 1.372z"/><path fill="#572f27" d="M88.63 326.9c4.794-.025 9.134.026 13.934.006 2.463-1.563 4.628-1.516 7.322-.589 9.382.334 18.239-1.38 27.18-.856 2.96.173 6.037.145 7.1 4.09-10.329.647-20.427.868-30.956 1.117-6.656-1.2-12.944-.277-19.657-.499-7.505-.067-14.552-.164-22.064-.256-.466.006-.904-.041-1.125-.056-.643-.315-.827-.723-.528-1.51 6.276-.637 12.307-1.004 18.793-1.447z"/><path fill="#f39951" d="M95.99 299.63c-1.743-.34-3.26-1.67-5.663-1.626-.37-3.364-.374-6.724-.348-10.541 1.418-.417 2.417.51 2.456 1.644.132 3.79 2.511 6.72 3.555 10.523z"/><path fill="#854a2c" d="M69.77 328.09c.31.387.308.781.34 1.467-.52.12-1.36.108-1.562-.258-.352-.64.255-1.05 1.222-1.209z"/><path fill="#d78140" d="M493.56 580c-.513-1.59-.57-3.17-.584-5.13 4.167-5.552 9.945-8.676 15.15-12.49 4.943-3.622 10.083-6.977 15.49-10.435 2.145-.023 3.739.876 5.803 1.137 1.209.242 2.09.265 3.319-.046 1.865-.277 3.355-.32 4.908.905.457 4.405-2.862 6.094-5.434 7.826-7.01 4.721-13.5 10.076-19.928 15.511-2.792 2.36-6.138 2.215-9.324 2.62-2.939.375-5.96.101-9.4.102z"/><path fill="#572f27" d="M538.31 554.18c-2.11.049-3.757.014-5.818-.016-.872.243-1.359.333-2.21.104-2.337-.141-4.256-.395-6.085-2.032-.23-.276-.2-.252-.217-.249.997-.558 2.034-1.25 3.18-1.272 9.698-.193 19.418-1.206 29.454.912.376.794.375 1.264.358 2.087-.184.508-.354.664-.758 1.074-.235.253-.23.213-.21.211-5.765.375-11.43-1.57-17.693-.819z"/><path fill="#f39951" d="M183.34 254.77c.982.923.572 2.282.386 3.927-.261-.991-.384-2.307-.386-3.927z"/><path fill="#cf7e3c" d="M557.31 551.89c-11.013.11-21.711.165-32.876.158 5.923-6.593 13.732-11.307 20.96-16.762 6.186-4.67 12.462-9.22 19.166-14.17.95 5.942.36 11.48.51 17.439-1.646 3.8-1.047 7.891-3.953 11.102-1.229 1.093-2.061 2.126-3.806 2.233z"/><path fill="#cf8752" d="M517.3 675.6c-.29 29.692-.289 58.997-.315 88.301-.001 1.815-.214 3.63-.604 5.747-.355-25.934-.434-52.17-.511-78.408-.04-13.452-.075-26.904-.003-40.817.427-.514.745-.568 1.402-.274 1.866 8.587 1.904 16.826.03 25.452z"/><path fill="#f1c095" d="M517.25 649.64c-.298.288-.787.312-1.032.32-.295-5.347-.344-10.701-.306-16.52 1.506-1.46 2.943-1.107 4.71-.494.938.698 1.236 1.638.807 2.307-2.768 4.31-2.855 9.329-4.179 14.387z"/><path fill="#6c382a" d="M561.23 549.92c.274-3.698 1.56-7.164 3.48-10.703.334 3.185.368 6.56.307 10.389-1.19.417-2.283.38-3.787.314z"/><path fill="#985832" d="M556.19 554.93c-.125-.215.058-.47.55-.762.127.218-.056.471-.55.762z"/><path fill="#c6753a" d="M558.2 586.78c.07.398-.103.768-.18.957-2.342 2.294-5.163 1.426-8.235 1.622-1.37-.055-2.23-.294-3.365-1.072-1.662-6.773.566-11.852 5.538-16.099 4.785-4.087 9.208-8.599 13.995-12.683 2.116-1.804 2.895-3.723 2.866-6.432-.084-7.96.475-15.948-.004-23.877-.506-8.388.954-15.678 7.854-21.474 3.831-.114 7.614.07 11.833.316.442 2.89.197 5.747.502 8.543.743 6.818-.044 12.514-8.041 14.571-2.287.589-3.133 2.734-2.982 5.19.489 7.943-.873 15.95.846 23.855.462 2.124-.889 3.328-2.355 4.568-4.429 3.744-8.696 7.683-13.18 11.358-3.303 2.707-5.016 6.047-5.093 10.658z"/><path fill="#af6735" d="M129.95 545.28c.14.01.29.271.283.637-.196-.06-.235-.222-.283-.637z"/><path fill="#60332a" d="M90.96 491.17c.285.311.275.742.224 1.493-.234.324-.425.329-.903.333-.063-.569.16-1.138.679-1.826z"/><path fill="#f39951" d="M290.58 272.31c.227.555.271 1.37.18 2.467-.212-.549-.287-1.378-.18-2.467z"/><path fill="#f59b54" d="M555.82 363.74c1.776 3.325 4.103 5.714 7.038 8.005.156 1.073.149 1.846.13 3.01-8.496-4.99-16.975-10.382-25.472-15.744-2.359-1.488-4.452-3.453-7.587-4.13-1.426-5.669-.72-11.426-.92-17.627 5.38 1.616 7.787 6.692 11.194 10.636a168.805 168.805 0 0 0 15.618 15.851z"/><path fill="#f79b53" d="M144.3 329.98c-.87-3.432-3.764-2.533-5.7-2.594-9.217-.289-18.444-.301-28.13-.481-.575-.21-.686-.351-.626-.7 4.486.396 8.59-1.498 12.881-1.268 1.694.09 2.282-1.036 2.246-2.559-.03-1.278.27-3.16-1.474-3.164-6.282-.015-9.115-4.361-12.192-9.06-1.42-1.52-1.638-3.005-.568-4.97 12.524 7.507 24.727 15.367 37.142 23.492-.93.612-2.072.96-3.579 1.304z"/><path fill="#f39951" d="M109.96 325.66c.057.34.049.76.048.968-2.039.252-4.077.293-6.547.272-.956-6.255-3.352-12.03-4.448-18.498 2.273-.141 3.975 1.185 3.867 3.38-.294 5.983 4.091 9.344 7.08 13.878zM110.96 304.63c.073 1.64.054 3.077.035 4.942-4.708-1.691-4.934-2.563-1.17-5.506.626-.057.864.112 1.135.564z"/><path fill="#d78140" d="M516.98 650.4c-.834-6.4.577-11.785 3.944-17.067 7.353-7.43 14.81-14.364 21.719-22.291 1.69.38 2.474 1.536 2.54 2.885.313 6.417 1.349 12.874-.949 19.624-10.323 4.178-13.882 11.15-12.582 21.923.473 3.915-3.372 8.144-3.445 13.15-4.907.725-7.22 4.73-10.842 7.33-.352-8.337-.357-16.708-.385-25.555z"/><path fill="#c0733a" d="M544.31 633.85c-.731-7.306.548-14.787-1.205-22.572 3.44-3.56 2.755-7.827 2.781-11.911.023-3.477.035-6.955.118-10.897.818-.462 1.57-.46 2.7-.448 3.047 1.071 5.85.18 8.879.843.312.275.424.647.496.828.022 9.429-.045 18.678-.07 27.927-.026 9.476-.806 10.648-9.776 14.45-1.213.515-2.394 1.104-3.923 1.78z"/><path fill="#1b7570" d="M519.39 516.06c-2.444-4.071-6.942-5.526-10.254-8.811 5.46-9.629 11.73-17.686 24.473-16.371 3.92.404 5.341 1.09 3.065 4.811-.594.971-.418 1.88.247 3.128-2.527 6.316-8.574 8.97-12.779 13.437-1.31 1.392-2.94 2.483-4.753 3.806z"/><path fill="#18746e" d="M506.73 507.01c-.115 2.035-.773 3.794-3.583 3.193.593-1.152 1.379-2.053 2.426-3.091.46-.13.66-.123 1.157-.102z"/><path fill="#b16836" d="M599.24 504.59c-3.944.308-7.63.36-11.773.359 2.068-1.542 1.8-4.065 1.48-6.294-.88-6.147 2.382-9.631 7.27-12.284 1.75-.95 3.413-2.061 5.42-3.247.32 5.336.283 10.822.375 16.305.037 2.157-.29 3.977-2.772 5.16z"/><path fill="#cf7e3c" d="M191.12 447.02c7.108 5.374 14.363 10.939 21.197 16.98 3.063 2.708 2.339 7.126 2.5 10.824.315 7.15.213 14.324.069 21.484-.057 2.792.904 4.255 3.616 5.04 4.15 1.199 8.128 3.044 12.316 4.044 5.602 1.339 7.49 4.847 7.17 10.167-.07 1.158.084 2.329.145 3.938-5.855 1.522-11.408.107-16.576-2.347-4.768-2.264-10.152-2.504-15.134-5.126-1.487-.982-1.803-2.285-1.84-3.61-.387-14.168.258-28.357-.715-42.967-2.252-5.206-6.208-8.71-9.613-12.644-1.412-1.632-2.836-3.169-3.135-5.783z"/><path fill="#a66032" d="M203.6 464.99c1.944 4.229 2.239 8.682 2.318 13.08.198 10.987.093 21.98.122 33.436.004 1.525-.004 2.585.005 4.039-2.877 1.172-4.044-1.855-6.652-2.518-.833-4.733.334-9.513-1.317-14.504-.823-11.427-1.454-22.499-2.09-34.032 2.496-.88 4.82.056 7.614.499z"/><path fill="#cf7e3c" d="M186.04 442.45c.563.125 1.18.563 1.92 1.264-.773.24-1.578.069-1.92-1.264zM189.16 445.1c.206-.074.52.126.976.57-.195.065-.531-.116-.976-.57z"/><path fill="#935530" d="M91.52 479.27c.215.653.211 1.588.012 2.824-.208-.647-.219-1.595-.012-2.824z"/><path fill="#f39951" d="M233.7 398.68c7.955 8.371 15.511 16.468 23.066 24.564 1.241 1.33 3.463 2.59 3.562 4.002.593 8.376 8.11 14.66 6.827 23.569-.446 3.095.023 6.274.895 9.757-3.37 2.37-5.108-1.022-7.855-2.273-3.447-3.361-8.13-3.611-11.542-6.386-2.89-2.35-5.178-4.928-4.573-8.803.816-5.229-1.781-8.238-6.118-10.046-3.103-1.293-4.551-3.717-5.645-6.559-3.387-8.798-7.155-17.469-9.117-27.147 3.171-2.68 6.62-2.084 10.5-.679z"/><path fill="#e7934e" d="M234.2 398.67c-3.469.298-6.839.314-10.658.326-.634-.012-.82-.019-1.283-.013-.294-3.337-3.103-1.9-4.638-2.343-1.827-.527-3.846-.386-6.215-.593-2.532-3.499-6.33-4.775-9.378-6.985-4.558-3.302-7.947-7.074-7.05-13.644 1.424-.48 2.854-.532 4.698-.699 2.907-.027 5.4.149 7.89.123 2.303-.023 4.43.623 5.868 2.28 6.523 7.52 13.704 14.38 20.766 21.549zM259.5 458c3.616-.743 5.077 2.708 8.206 2.993 5.016 5.418 9.654 10.83 14.352 16.58-10.161-4.163-20.773-7.822-30.207-14.01-1.833-1.202-3.167-2.366-2.82-5.086 3.35-.406 6.683-.438 10.47-.476z"/><path fill="#905530" d="M202.68 399.91c2.374-.023 4.379-.002 6.81.022.464 4.722.5 9.442.503 14.63-3.834-.364-4.687-3.733-6.14-6.599-1.375-2.71-2.009-5.902-5.457-7.821 1.667-.08 2.791-.133 4.284-.232z"/><path fill="#cf7e3c" d="M285.71 538.05c.552 1.6.863 2.943 1.179 4.643-5.937-.106-11.812.684-17.699 1.299-3.323.347-5.325-.587-5.269-4.536.085-6.033-2.962-10.038-8.578-12.398-2.3-.967-5.226-1.41-6.32-4.69 15.133-2.066 26.03 6.125 36.686 15.682z"/><path fill="#382431" d="M402.83 406.28c2.933.154 6.134-1.149 9.383.439 1.115 12.982.464 25.679.772 38.83-3.866 2.516-8.052.967-12.529 1.456 7.303-6.77 7.948-15.794 7.55-25.611-.964-1.88-1.242-3.446-.947-5.784.55-4.359-2.203-6.457-4.23-9.33z"/><path fill="#e6a779" d="M389.16 402.31c-.093-.492.003-.714.3-1.242 4.414.722 6.2 4.707 9.263 7.138 2.687 2.133 4.323 5.482 8.136 6.732.361-.005.283.054.241.028.71 1.468.317 3.048.01 4.97-6.113-5.539-11.937-11.448-17.95-17.626z"/><path fill="#f3d0a9" d="M406.95 420.51c-.066-1.696.002-3.188.087-5.125 1.7 1.038.596 3.017.94 5.14 0 .402-.485.457-.485.457s-.409-.268-.542-.472z"/><path fill="#f1c095" d="M178.35 395.9c-.24-.018-.25-.505-.175-.737.318-.084.518.109.784.523.107.18-.37.232-.609.214z"/><g fill="#e7934e"><path d="M283 478.7c-.196.061-.48-.123-.853-.552.196-.061.48.123.853.552zM283.98 479.72c-.19.054-.468-.136-.837-.568.189-.053.468.135.837.568zM284.95 480.75c-.184.047-.454-.148-.818-.58.182-.046.457.146.818.58z"/></g><path fill="#5ee4e2" d="M444.26 448.4c-.12.144-.327.163-.535.181.149-.102.298-.204.535-.181zM448.24 446.45c.253-.23.648-.285 1.336-.28-.077.67-.56.85-1.336.28z"/><path fill="#e7934e" d="M293.6 442.88c-.534-.705-.611-1.388-.738-2.413-1.788-3.494-1.696-7.049-2.105-10.456-.3-2.497-.898-4.859-1.76-7.605.05-.799.144-1.192.348-1.868 2.096-1.057 4.083-1.832 6.448-2.642 3.658-.15 4.003 3.02 5.948 4.904 1.38 1.246 2.321 2.413 3.027 4.138.122.3.18.708.266.895.224.366.363.545.723.98 1.113 3.146 3.266 5.275 5.04 7.985.991.897 1.343 1.827 2.018 2.89.378.488.534.784.907 1.209.214 2.985 2.494 4.818 3.549 7.592-3.091-.265-6.318-.862-9.964-1.43-1.138-.37-2.815.681-2.358-1.559 2.394-.395 4.672-.558 6.95-.72-5.772-2.504-11.878-1.48-18.299-1.9z"/><path fill="#af6735" d="M320.85 472.65c-.293.226-.75.266-1.54.214.146-.693.702-.878 1.54-.214z"/><path fill="#b16836" d="M288.64 422.14c5.297 3.572 2.535 9.463 4.268 14.103.326.873.032 1.977-.037 3.428-3.325.067-6.588-.319-10.26-.7-1.43-6.685 2.743-11.467 6.03-16.83z"/><path fill="#db8645" d="M375.69 506.96c-.29.14-.525-.049-.763-.531.211-.055.484.11.763.531z"/><g fill="#f6dab8"><path d="M304.92 426.85c-1.252-.588-2.281-1.709-2.874-3.526 2.135-.182 3.004 1.07 2.874 3.526zM313.02 439.54c-1.072-.043-1.614-.884-1.93-2.247 1.37-.221 1.923.6 1.93 2.247zM305.9 428.84c-.24.118-.486-.079-.72-.595.245-.115.48.086.72.595z"/></g><path fill="#854a2c" d="M63.33 248.3c7.168-.141 14.634.001 22.439.394-7.156.234-14.658.685-22.439-.394z"/><path fill="#7c422b" d="M557.92 588.83c-2.79.13-5.554-.041-8.58-.51 2.4-.324 5.06-.352 8.164-.39.442.192.441.394.416.9z"/><path fill="#e37d35" d="M420.54 328.74c-9.932.111-9.93.111-9.84-9.314.017-1.83.024-3.66.03-5.49.028-7.375.027-7.38 7.641-7.264 1.33.02 2.663.06 3.989.16 6.657.503 10.433 4.144 10.625 10.214.195 6.157-3.213 10.222-9.53 11.35-.817.146-1.647.219-2.915.344zM413.2 294.24c-2.51.088-2.938-1.148-2.917-2.874.06-4.987.066-9.974.104-14.96.008-.996-.085-2.42.952-2.62 4.61-.89 9.29-1.032 13.727.736 3.416 1.361 4.896 4.263 5.156 7.875.465 6.46-3.08 10.86-9.584 11.595-2.305.26-4.648.176-7.438.249z"/><path fill="#985832" d="M530.12 554.29c.305-.22.782-.246 1.61-.198-.161.649-.737.873-1.61.198z"/></g></svg>